<?xml version="1.0" standalone="no"?>
<!DOCTYPE svg PUBLIC "-//W3C//DTD SVG 20010904//EN"
 "http://www.w3.org/TR/2001/REC-SVG-20010904/DTD/svg10.dtd">
<svg version="1.0" xmlns="http://www.w3.org/2000/svg"
 width="5858.000000pt" height="5858.000000pt" viewBox="0 0 5858.000000 5858.000000"
 preserveAspectRatio="xMidYMid meet">
<metadata>
Created by potrace 1.14, written by Peter Selinger 2001-2017
</metadata>
<g transform="translate(0.000000,5858.000000) scale(0.100000,-0.100000)"
fill="#000000" stroke="none">
<path d="M21310 56599 c-1213 -87 -2288 -429 -3170 -1008 -270 -177 -521 -383
-752 -617 -184 -187 -288 -312 -485 -584 -281 -388 -460 -588 -598 -672 -144
-87 -307 -107 -578 -72 -198 26 -634 26 -827 0 -964 -129 -2013 -585 -2925
-1271 -609 -459 -1029 -919 -1341 -1470 -295 -523 -475 -1130 -524 -1774 -13
-174 -13 -549 0 -722 109 -1414 752 -2881 1889 -4309 318 -398 525 -624 1136
-1240 551 -555 659 -669 830 -882 299 -372 432 -666 395 -877 -24 -137 -114
-263 -259 -360 -86 -59 -270 -145 -361 -171 -364 -102 -721 57 -1300 580 -158
143 -639 625 -879 880 -887 943 -1545 1883 -2072 2955 -352 718 -574 1333
-765 2115 -130 535 -256 898 -350 1010 -26 30 -31 32 -76 27 -255 -31 -942
-568 -1674 -1308 -561 -569 -908 -1001 -1226 -1524 -605 -999 -938 -2011
-1030 -3130 -15 -190 -15 -737 1 -920 49 -579 149 -1065 324 -1580 65 -189
124 -339 240 -605 178 -410 236 -592 244 -772 9 -190 -11 -265 -152 -558 -191
-398 -267 -726 -295 -1269 -37 -703 110 -1503 369 -2019 720 -1433 2520 -2656
4526 -3076 362 -76 742 -123 1330 -166 193 -14 514 -15 596 0 192 33 266 98
333 296 136 402 716 1652 960 2067 240 410 408 530 811 581 400 51 694 38 861
-38 312 -143 266 -565 -162 -1469 -46 -97 -122 -257 -168 -355 -245 -517 -362
-872 -426 -1292 -82 -529 -92 -1436 -24 -2060 156 -1438 798 -2411 1981 -3004
517 -258 1038 -425 1833 -587 601 -122 887 -210 1194 -366 712 -365 1067 -969
1291 -2198 105 -577 208 -985 341 -1351 366 -1015 920 -1770 1814 -2475 537
-423 1242 -848 2105 -1270 683 -334 1995 -928 2201 -998 49 -16 68 -18 97 -10
173 48 435 552 702 1354 202 604 434 1481 560 2110 187 937 244 1824 169 2616
-74 789 -278 1543 -618 2292 -220 485 -437 863 -851 1482 -289 432 -371 564
-450 723 -115 232 -154 386 -162 652 -7 235 5 370 112 1295 46 396 82 721 80
723 -2 2 -129 10 -282 18 -153 8 -458 23 -678 34 -853 43 -986 51 -1170 65
-1634 131 -2901 588 -3870 1396 -137 114 -395 368 -525 516 -369 420 -695 943
-890 1428 -331 822 -412 2029 -270 3995 59 810 125 1472 285 2865 52 451 112
991 134 1200 311 2958 275 4378 -139 5384 -27 66 -85 191 -129 278 -333 667
-662 1037 -1130 1277 -289 148 -592 234 -1127 321 -632 103 -949 219 -1155
424 -99 100 -131 164 -137 277 -10 196 103 373 383 597 513 411 820 425 1975
92 434 -125 668 -211 955 -351 211 -102 344 -178 540 -309 960 -640 1613
-1617 1930 -2885 109 -435 175 -887 206 -1404 15 -252 6 -1011 -15 -1376 -40
-664 -113 -1555 -177 -2160 -29 -277 -54 -501 -94 -835 -192 -1600 -320 -3607
-301 -4733 25 -1528 198 -2360 621 -2992 283 -423 668 -736 1276 -1041 532
-266 1027 -422 1571 -495 180 -24 630 -30 817 -10 386 41 707 133 1046 301
291 143 522 310 755 544 299 300 518 631 693 1047 304 724 421 1688 297 2459
-48 298 -151 659 -277 975 -224 557 -604 1223 -1119 1960 -59 85 -124 187
-143 225 -33 65 -36 76 -36 160 1 76 5 99 27 146 60 131 169 268 443 559 331
352 528 611 720 944 405 706 599 1558 564 2474 -41 1051 -530 2350 -1160 3076
-48 56 -177 197 -288 315 -111 118 -201 217 -201 220 0 3 145 177 321 386 177
209 374 451 440 537 548 727 894 1521 1044 2395 76 447 86 1030 24 1496 -156
1182 -703 2266 -1591 3158 -280 282 -529 487 -838 694 -844 563 -1828 894
-3005 1011 -189 18 -948 27 -1145 13z"/>
<path d="M36909 55996 c-224 -85 -984 -491 -1929 -1031 -545 -311 -837 -482
-2575 -1508 l-1260 -743 -3 -12081 -2 -12080 457 -435 c252 -240 535 -514 628
-609 406 -415 498 -622 525 -1176 18 -369 7 -831 -25 -1047 -57 -381 -190
-607 -598 -1020 -321 -323 -665 -572 -1030 -746 -176 -83 -245 -104 -602 -175
-176 -36 -330 -67 -342 -70 l-23 -5 0 -2410 c0 -1411 4 -2410 9 -2410 5 0 71
36 147 79 1428 813 2375 1356 4139 2372 1490 857 1649 950 1659 959 5 5 14
1376 22 3102 59 13544 80 18553 86 20068 l3 865 -321 190 c-386 229 -430 258
-559 359 -265 211 -498 502 -653 819 -447 907 -328 1984 302 2732 111 132 335
351 466 455 411 326 858 521 1335 581 119 15 395 14 520 -1 540 -65 1045 -314
1479 -730 635 -609 886 -1603 641 -2535 -109 -418 -306 -768 -594 -1056 -160
-159 -215 -199 -640 -466 l-348 -218 -6 -809 c-11 -1239 -8 -9523 3 -10721 29
-3173 87 -4925 162 -4925 57 0 767 362 1493 763 548 302 743 412 2483 1401
l892 508 0 5087 0 5086 -313 230 c-171 127 -357 266 -412 310 -411 328 -726
802 -869 1306 -178 625 -125 1281 150 1858 257 541 706 966 1245 1179 421 167
1040 242 1461 177 526 -81 943 -316 1456 -819 578 -568 702 -839 702 -1542 0
-106 -5 -238 -10 -295 -68 -677 -358 -1348 -751 -1739 -143 -142 -290 -237
-451 -289 -215 -71 -285 -225 -332 -731 -54 -584 -58 -913 -63 -5961 l-5
-4666 -1396 -808 c-2168 -1255 -2853 -1656 -3777 -2210 -820 -492 -980 -593
-1406 -891 l-279 -195 0 -3197 -1 -3197 -1362 -782 c-749 -430 -2224 -1278
-3277 -1883 l-1915 -1101 -2 -152 c-6 -365 -104 -11150 -101 -11152 8 -7 3012
-1741 3288 -1898 1325 -754 2488 -1347 2641 -1347 16 0 61 16 99 35 296 149
2797 1579 6860 3922 3706 2137 4342 2461 4955 2523 126 13 217 8 509 -26 443
-52 852 -25 1296 87 322 81 612 190 935 353 421 213 755 447 1079 757 607 580
985 1367 1102 2294 21 168 30 615 15 800 -126 1602 -1067 2889 -2502 3423
-837 311 -1811 319 -2685 21 -1060 -361 -1895 -1114 -2326 -2099 -25 -58 -71
-177 -103 -265 -71 -198 -119 -293 -211 -416 -203 -269 -596 -563 -1420 -1061
-358 -217 -756 -448 -1574 -915 -1326 -758 -1790 -1034 -2250 -1338 -479 -317
-735 -553 -800 -738 -15 -41 -23 -102 -30 -220 -12 -209 -33 -356 -80 -542
-48 -189 -92 -310 -184 -500 -146 -302 -333 -555 -581 -786 -304 -284 -692
-502 -1096 -618 -247 -71 -431 -95 -714 -95 -253 0 -379 14 -605 70 -765 189
-1422 733 -1708 1414 -290 691 -245 1462 124 2170 196 375 511 752 849 1015
274 213 599 373 900 443 368 86 783 65 1170 -59 180 -57 259 -91 701 -300
l402 -191 718 409 c1361 775 2192 1249 6714 3823 2494 1420 5883 3350 7531
4288 l2996 1706 6 2760 c4 1517 7 3743 7 4945 0 2304 13 4549 30 5411 28 1423
71 2004 171 2315 39 121 55 145 195 288 66 67 146 158 179 202 271 364 552
974 706 1535 148 542 167 927 65 1378 -183 810 -705 1768 -1291 2371 -204 209
-332 314 -554 454 -405 253 -927 445 -1466 537 -275 46 -385 55 -715 55 -311
0 -406 -7 -630 -46 -887 -153 -1812 -771 -2481 -1654 -609 -804 -931 -1763
-844 -2510 87 -748 556 -1911 899 -2232 61 -57 90 -92 101 -122 59 -169 105
-719 135 -1626 40 -1213 50 -2598 50 -7075 l0 -3965 -1097 -630 c-604 -346
-1192 -684 -1308 -751 -2338 -1342 -3531 -2028 -3538 -2034 -4 -3 -37 -224
-73 -491 -67 -503 -91 -632 -150 -821 -312 -988 -1184 -1675 -2259 -1779 -152
-15 -484 -6 -625 16 -387 61 -757 209 -1045 418 -351 256 -613 586 -798 1007
-339 773 -303 1635 98 2360 263 474 665 862 1129 1089 174 86 299 132 470 176
516 131 1030 84 1541 -140 303 -133 357 -155 475 -198 162 -59 307 -97 397
-104 l71 -6 134 70 c375 197 1610 893 4193 2365 424 242 773 442 777 446 4 4
-2 1848 -12 4097 -40 8308 -70 15004 -76 16580 -4 891 -9 1682 -13 1758 l-6
138 -810 465 c-2175 1249 -3936 2266 -6825 3944 -1220 709 -1669 968 -2175
1257 -1805 1032 -3083 1725 -3221 1748 -16 2 -45 -2 -65 -9z m17992 -13727
c357 -28 566 -96 794 -257 117 -83 422 -392 531 -537 307 -412 456 -835 456
-1295 0 -656 -330 -1242 -922 -1635 -289 -193 -694 -366 -1007 -431 -161 -34
-388 -38 -518 -10 -299 65 -574 221 -930 525 -326 279 -473 455 -601 716 -323
662 -237 1490 225 2150 128 184 367 443 501 544 186 140 379 204 691 230 153
12 625 13 780 0z m-4781 -27030 c129 -12 296 -52 416 -99 732 -289 1395 -1057
1554 -1800 47 -218 38 -494 -25 -729 -160 -598 -636 -1201 -1151 -1459 -142
-71 -557 -234 -752 -296 l-83 -26 -392 114 c-421 123 -453 134 -579 197 -515
258 -1005 881 -1158 1474 -44 167 -53 256 -47 438 12 396 168 800 460 1197
420 570 1025 954 1567 993 25 2 52 4 60 5 8 1 67 -3 130 -9z"/>
<path d="M36800 50134 c-104 -10 -279 -47 -383 -80 -720 -231 -1207 -869
-1233 -1614 -6 -147 -4 -160 21 -245 65 -220 255 -553 460 -806 239 -294 453
-475 672 -567 247 -104 619 -129 943 -62 675 140 1212 672 1364 1351 66 298
53 588 -40 869 -114 346 -344 637 -679 862 -207 139 -441 231 -695 274 -86 15
-347 26 -430 18z"/>
<path d="M43451 46688 c-381 -47 -770 -264 -1029 -573 -392 -467 -509 -1076
-316 -1653 99 -295 291 -600 515 -818 199 -192 375 -284 634 -329 264 -46 801
-21 1078 49 230 59 371 138 527 295 133 133 220 264 345 516 177 357 245 595
245 856 0 244 -66 456 -214 684 -126 194 -355 443 -548 596 -376 298 -810 431
-1237 377z"/>
<path d="M2151 35733 c-119 -121 -236 -277 -446 -593 -330 -497 -608 -976
-870 -1495 -155 -309 -230 -479 -340 -774 -271 -726 -437 -1506 -484 -2278
-14 -218 -14 -730 -1 -938 133 -2082 1031 -4071 2654 -5875 205 -228 623 -649
876 -882 1299 -1199 3071 -2330 4920 -3140 628 -276 1144 -468 1850 -689 1627
-510 2510 -904 3225 -1439 399 -299 693 -610 997 -1055 318 -465 449 -752 512
-1120 46 -266 49 -348 55 -1520 l6 -1120 245 -63 c704 -180 859 -221 1132
-298 375 -105 615 -177 888 -264 255 -82 556 -170 581 -170 24 0 35 44 48 190
19 202 30 531 36 1050 8 727 24 990 76 1250 82 412 247 617 558 696 199 51
555 53 744 5 414 -106 559 -476 631 -1616 9 -132 23 -395 31 -585 53 -1193
119 -1630 301 -1987 71 -140 132 -229 345 -498 1036 -1315 1679 -2401 1852
-3130 57 -238 94 -682 68 -820 -34 -185 -161 -303 -461 -429 -201 -85 -264
-100 -440 -100 -151 -1 -157 0 -231 30 -105 42 -180 95 -279 194 -215 214
-400 547 -675 1215 -297 721 -660 1272 -1179 1791 -202 201 -353 332 -571 497
-771 582 -1703 989 -2795 1220 -629 134 -1518 228 -1873 198 -360 -30 -540
-104 -1023 -422 -592 -388 -1149 -657 -1809 -872 -466 -152 -860 -228 -1180
-229 -168 0 -234 9 -380 53 -199 61 -296 140 -336 271 -20 64 -21 86 -16 232
18 516 183 699 877 970 476 187 562 222 728 297 1214 550 2049 1365 2301 2244
212 741 39 1463 -532 2220 -114 151 -410 448 -567 569 -246 190 -508 350 -835
511 -424 208 -794 352 -1570 610 -683 228 -1036 356 -1515 550 -2170 878
-4247 2093 -5595 3271 -206 180 -604 575 -744 739 -56 66 -175 217 -263 335
-202 270 -337 409 -450 465 -68 33 -83 37 -135 33 -75 -6 -126 -31 -188 -93
-102 -102 -211 -304 -330 -615 -189 -495 -296 -1006 -336 -1610 -15 -223 -6
-799 15 -1010 71 -704 228 -1287 480 -1785 208 -410 465 -761 826 -1129 510
-520 1073 -923 1785 -1279 779 -389 1595 -647 2470 -781 385 -60 699 -84 1230
-96 424 -9 624 -23 855 -61 617 -99 986 -329 1040 -649 16 -93 8 -136 -40
-229 -90 -173 -262 -367 -375 -424 -553 -277 -2333 -331 -3525 -106 -58 11
-220 49 -360 84 -319 79 -467 105 -646 112 -222 9 -267 -10 -313 -131 -175
-467 14 -2079 346 -2946 423 -1104 1557 -2418 2793 -3235 320 -212 646 -389
1040 -568 767 -346 1193 -407 2870 -407 1297 0 2173 53 2635 160 222 51 323
63 400 49 177 -33 263 -142 479 -611 115 -250 207 -419 323 -597 590 -906
1663 -1796 2866 -2376 918 -442 1799 -671 2827 -735 214 -13 759 -13 970 0
1141 72 2230 341 3255 805 929 421 1766 1003 2386 1660 956 1012 1531 2070
1758 3235 77 395 110 728 118 1180 25 1435 -276 2728 -884 3799 -726 1279
-1912 2345 -3663 3293 -195 106 -374 197 -945 481 -723 360 -1185 626 -1740
998 -1457 978 -2444 2107 -2961 3388 -163 401 -233 654 -399 1431 -159 743
-228 1047 -251 1104 -101 250 -372 379 -1138 542 -262 56 -402 91 -636 159
-565 165 -1170 394 -1566 593 -330 165 -606 285 -789 341 -158 48 -270 64
-415 58 -156 -7 -217 -21 -488 -108 -556 -179 -1061 -275 -1757 -331 -216 -18
-1151 -18 -1375 0 -559 43 -933 91 -1415 178 -917 166 -1959 488 -2600 804
-470 231 -686 440 -702 678 -9 134 31 245 148 402 64 88 544 580 564 580 6 0
308 -106 671 -236 833 -298 951 -338 1269 -434 1226 -370 2283 -479 3440 -354
651 70 1009 146 1137 239 100 73 104 133 24 385 -103 329 -277 917 -725 2454
-61 209 -112 381 -114 383 -3 3 -201 21 -1127 103 -461 41 -696 66 -917 95
-2511 335 -4554 1393 -5733 2970 -203 272 -358 520 -510 820 -172 338 -274
602 -402 1040 -158 542 -305 929 -410 1083 -24 34 -35 42 -60 42 -27 0 -47
-15 -127 -97z"/>
<path d="M30383 27546 c-153 -48 -204 -195 -234 -671 -15 -249 -15 -1605 0
-1858 26 -437 73 -594 196 -657 100 -51 346 -37 550 31 436 146 784 570 899
1096 55 250 65 554 25 792 -127 763 -658 1284 -1304 1280 -49 0 -109 -6 -132
-13z"/>
<path d="M42935 22708 c-109 -12 -290 -53 -394 -90 -47 -16 -143 -59 -212 -94
-303 -156 -552 -406 -708 -712 -341 -670 -214 -1448 328 -2015 236 -247 515
-408 836 -483 112 -27 134 -28 335 -28 184 0 229 3 314 22 759 169 1307 777
1417 1572 20 145 17 397 -5 500 -68 315 -262 628 -539 870 -402 352 -885 513
-1372 458z"/>
<path d="M37335 11433 c-92 -9 -271 -45 -379 -78 -575 -174 -1020 -592 -1195
-1122 -106 -318 -102 -641 9 -975 117 -352 482 -861 742 -1035 363 -242 954
-259 1503 -41 312 124 578 300 800 530 315 325 447 684 390 1060 -35 232 -113
465 -245 733 -172 348 -382 624 -568 742 -109 70 -376 148 -605 178 -107 14
-344 18 -452 8z"/>
</g>
</svg>
