<?xml version="1.0" encoding="UTF-8" standalone="no"?>
<!-- Created with Inkscape (http://www.inkscape.org/) -->

<svg
   width="83.94268mm"
   height="14.652057mm"
   viewBox="0 0 83.94268 14.652057"
   version="1.1"
   id="svg1"
   inkscape:version="1.3.2 (091e20e, 2023-11-25, custom)"
   sodipodi:docname="logos.svg"
   xml:space="preserve"
   xmlns:inkscape="http://www.inkscape.org/namespaces/inkscape"
   xmlns:sodipodi="http://sodipodi.sourceforge.net/DTD/sodipodi-0.dtd"
   xmlns="http://www.w3.org/2000/svg"
   xmlns:svg="http://www.w3.org/2000/svg"><sodipodi:namedview
     id="namedview1"
     pagecolor="#ffffff"
     bordercolor="#000000"
     borderopacity="0.25"
     inkscape:showpageshadow="2"
     inkscape:pageopacity="0.0"
     inkscape:pagecheckerboard="0"
     inkscape:deskcolor="#d1d1d1"
     inkscape:document-units="mm"
     inkscape:zoom="0.64"
     inkscape:cx="227.34375"
     inkscape:cy="614.84375"
     inkscape:window-width="1920"
     inkscape:window-height="1017"
     inkscape:window-x="-8"
     inkscape:window-y="-8"
     inkscape:window-maximized="1"
     inkscape:current-layer="layer1" /><defs
     id="defs1" /><g
     inkscape:label="Calque 1"
     inkscape:groupmode="layer"
     id="layer1"
     transform="translate(-91.744257,-21.034368)"><g
       id="g55"
       transform="matrix(2.176562,0,0,2.176562,-242.69922,-109.69085)"><path
         style="fill:#68abf8;fill-opacity:1;fill-rule:evenodd;stroke:#68abf8;stroke-width:0.0499999;stroke-dasharray:none;stroke-opacity:1"
         d="m 153.80163,65.948878 c 0,0 -0.0107,-3.175637 -0.006,-3.281453 0.005,-0.105816 0.22457,-1.475111 1.64718,-1.472779 1.42261,0.0023 1.62661,1.355656 1.64073,1.43402 0.0141,0.07836 0,3.274994 0,3.274994 h -1.27899 v -3.203938 c 0,0 -0.0419,-0.255349 -0.36174,-0.258381 -0.31987,-0.003 -0.32943,0.271301 -0.32943,0.271301 v 1.065827 h 0.40049 v 1.065826 h -0.38757 v 1.111044 z"
         id="path42"
         sodipodi:nodetypes="czzzccczccccccc" /><path
         style="fill:#000000;fill-opacity:1;fill-rule:evenodd;stroke:#000000;stroke-width:0.0499999;stroke-dasharray:none;stroke-opacity:1"
         d="m 157.50296,61.388432 v 1.104585 h 1.20793 v 3.436482 h 1.27254 v -3.449401 h 1.21439 v -1.098125 z"
         id="path43" /><path
         style="fill:#000000;fill-opacity:1;fill-rule:evenodd;stroke:#000000;stroke-width:0.0499999;stroke-dasharray:none;stroke-opacity:1"
         d="m 161.68874,61.394893 h 1.25316 v 4.534606 h -1.25961 z"
         id="path44"
         sodipodi:nodetypes="ccccc" /><path
         style="fill:#000000;fill-opacity:1;fill-rule:evenodd;stroke:#000000;stroke-width:0.0499999;stroke-dasharray:none;stroke-opacity:1"
         d="m 165.22212,65.884282 h -1.20147 c 0,0 0.001,-2.902899 0,-3.262074 -10e-4,-0.402201 0.19537,-1.388941 1.65364,-1.369425 0.77702,0.0104 1.68217,0.476489 1.71178,1.582589 0.0403,1.505574 -1.57613,1.550294 -1.57613,1.550294 h -0.32943 v -1.182097 c 0,0 0.43662,0.04951 0.478,-0.387575 0.0181,-0.191205 -0.13143,-0.431724 -0.38757,-0.426331 -0.34678,0.0073 -0.34881,0.503846 -0.34881,0.503846 z"
         id="path45"
         sodipodi:nodetypes="ccssscccsscc" /><path
         style="fill:#cc511e;fill-opacity:1;fill-rule:evenodd;stroke:#cc511e;stroke-width:0.0499999;stroke-dasharray:none;stroke-opacity:1"
         d="m 174.33009,65.393356 h -0.58135 c 0,0 -0.007,-1.598386 -0.0129,-2.377114 -0.001,-0.158663 -0.28707,-1.008985 -1.29837,-0.994773 -1.0113,0.01421 -1.37299,0.835892 -1.36943,1.479238 0.004,0.643346 0.67535,1.341897 1.31775,1.343588 0.6424,0.0017 0.97539,-0.536144 0.97539,-0.536144 v 0.74285 c 0,0 -0.21913,0.334817 -0.97539,0.355276 -0.75626,0.02046 -1.89204,-0.505053 -1.87327,-1.90557 0.0183,-1.370258 0.96188,-1.950625 1.91203,-1.963704 1.72787,-0.02379 1.89201,1.294751 1.89266,1.472777 0.007,1.941186 0.0129,2.383576 0.0129,2.383576 z"
         id="path46"
         sodipodi:nodetypes="ccszzzcczsssc" /><path
         style="fill:#706957;fill-opacity:1;fill-rule:evenodd;stroke:#706957;stroke-width:0.0499999;stroke-dasharray:none;stroke-opacity:1"
         d="m 174.85978,61.56284 h 0.67825 l 1.17564,3.003693 1.13042,-2.990773 h 0.71701 l -1.45017,3.667411 c 0,0 -0.14454,0.236967 -0.41664,0.239006 -0.27209,0.002 -0.40534,-0.235776 -0.40534,-0.235776 z"
         id="path47"
         sodipodi:nodetypes="cccccczcc" /><path
         style="fill:#706957;fill-opacity:1;fill-rule:evenodd;stroke:#706957;stroke-width:0.0499999;stroke-dasharray:none;stroke-opacity:1"
         d="m 182.75147,62.653082 -2.53045,1.415955 -0.28319,-0.465894 1.88185,-1.032278 c 0,0 -0.13472,-0.488673 -0.91352,-0.502435 -0.7788,-0.01376 -1.31087,0.7515 -1.30633,1.397685 0.005,0.646185 0.25203,1.402985 1.36114,1.415955 1.10911,0.01297 1.25152,-1.196711 1.25152,-1.196711 h 0.69427 c 0,0 -0.51817,1.788446 -1.93666,1.753955 -1.41849,-0.03449 -2.00812,-0.993038 -2.02801,-1.973199 -0.0199,-0.980161 0.67424,-1.940159 1.9458,-1.982338 1.27156,-0.04218 1.86358,1.169305 1.86358,1.169305 z"
         id="path48"
         sodipodi:nodetypes="cccczzzcczzzc" /><path
         style="fill:#706957;fill-opacity:1;fill-rule:evenodd;stroke:#706957;stroke-width:0.0499999;stroke-dasharray:none;stroke-opacity:1"
         d="m 183.7479,65.402775 h 0.6479 c 0,0 -0.003,-2.362153 0,-2.448232 0.003,-0.08608 0.12818,-0.853806 0.95919,-0.858708 0.83101,-0.0049 1.00905,0.635488 1.01401,0.794764 0.005,0.159276 0,2.466498 0,2.466498 h 0.66687 c 0,0 0.003,-2.342302 0,-2.493904 -0.003,-0.151602 -0.21859,-1.349307 -1.62606,-1.37028 -1.40747,-0.02097 -1.66439,1.261898 -1.66261,1.452497 z"
         id="path49"
         sodipodi:nodetypes="cczzzcczzcc" /><path
         style="fill:#706957;fill-opacity:1;fill-rule:evenodd;stroke:#706957;stroke-width:0.0499999;stroke-dasharray:none;stroke-opacity:1"
         d="m 188.41528,61.547724 h 0.6486 v 3.845915 h -0.6486 z"
         id="path50" /><path
         style="fill:#706957;fill-opacity:1;fill-rule:evenodd;stroke:#706957;stroke-width:0.0499999;stroke-dasharray:none;stroke-opacity:1"
         d="m 188.73502,60.085542 c 0.19235,0.005 0.40702,0.169572 0.42021,0.356825 0.0132,0.187253 -0.16856,0.424668 -0.3918,0.429355 -0.22324,0.0047 -0.4497,-0.165799 -0.44863,-0.405227 0.001,-0.239428 0.22787,-0.385971 0.42022,-0.380953 z"
         id="path51"
         sodipodi:nodetypes="zzzzz" /><path
         style="fill:#706957;fill-opacity:1;fill-rule:evenodd;stroke:#706957;stroke-width:0.0499999;stroke-dasharray:none;stroke-opacity:1"
         d="m 190.33687,65.393356 h 0.65242 c 0,0 -0.0585,-2.214314 0,-2.422332 0.0585,-0.208018 0.16194,-0.357083 0.40784,-0.656187 0.24591,-0.299104 0.78717,-0.209395 0.78717,-0.209395 v -0.633034 c 0,0 -0.34367,-0.03953 -0.50384,0 -0.16017,0.03953 -0.26965,0.07928 -0.4302,0.226111 -0.16055,0.14683 -0.26097,0.355247 -0.26097,0.355247 V 61.56284 h -0.65242 z"
         id="path52"
         sodipodi:nodetypes="cczzcczzcccc" /><path
         style="fill:#cc511e;fill-opacity:1;fill-rule:evenodd;stroke:#cc511e;stroke-width:0.0499999;stroke-dasharray:none;stroke-opacity:1"
         d="m 181.19247,60.222095 v 0.30179 h 6.08955 v -0.301789 z"
         id="path53"
         sodipodi:nodetypes="ccccc" /><path
         d="m 190.18325,60.20838 v 0.322004 h 2.02526 v -0.322003 z"
         style="fill:#cc511e;fill-opacity:1;fill-rule:evenodd;stroke:#cc511e;stroke-width:0.0297849;stroke-dasharray:none;stroke-opacity:1"
         id="path1-1" /><path
         d="m 170.15823,66.464526 v 0.286046 h 11.10767 v -0.286045 z"
         style="fill:#cc511e;fill-opacity:1;fill-rule:evenodd;stroke:#cc511e;stroke-width:0.0657436;stroke-dasharray:none;stroke-opacity:1"
         id="path1-56" /><path
         d="m 161.36769,60.22204 v 0.301902 h 6.06043 v -0.301901 z"
         style="fill:#68abf8;fill-opacity:1;fill-rule:evenodd;stroke:#68abf8;stroke-width:0.0498893;stroke-dasharray:none;stroke-opacity:1"
         id="path1-6" /><path
         d="m 153.68411,66.467714 v 0.2971 h 7.40033 v -0.297099 z"
         style="fill:#68abf8;fill-opacity:1;fill-rule:evenodd;stroke:#68abf8;stroke-width:0.0546892;stroke-dasharray:none;stroke-opacity:1"
         id="path1-0" /></g></g><style
     type="text/css"
     id="style1">
	.st0{fill:#00294B;}
	.st1{fill:#FFFFFF;}
</style><style
     type="text/css"
     id="style1-0">
	.st0{fill:#62003C;}
</style></svg>
