<?xml version="1.0" encoding="UTF-8" standalone="no"?>
<!-- Created with Inkscape (http://www.inkscape.org/) -->

<svg
   width="14.657923mm"
   height="14.65792mm"
   viewBox="0 0 14.657923 14.65792"
   version="1.1"
   id="svg1"
   inkscape:version="1.3.2 (091e20e, 2023-11-25, custom)"
   sodipodi:docname="logos.svg"
   xml:space="preserve"
   xmlns:inkscape="http://www.inkscape.org/namespaces/inkscape"
   xmlns:sodipodi="http://sodipodi.sourceforge.net/DTD/sodipodi-0.dtd"
   xmlns="http://www.w3.org/2000/svg"
   xmlns:svg="http://www.w3.org/2000/svg"><sodipodi:namedview
     id="namedview1"
     pagecolor="#ffffff"
     bordercolor="#000000"
     borderopacity="0.25"
     inkscape:showpageshadow="2"
     inkscape:pageopacity="0.0"
     inkscape:pagecheckerboard="0"
     inkscape:deskcolor="#d1d1d1"
     inkscape:document-units="mm"
     inkscape:zoom="0.64"
     inkscape:cx="227.34375"
     inkscape:cy="614.84375"
     inkscape:window-width="1920"
     inkscape:window-height="1017"
     inkscape:window-x="-8"
     inkscape:window-y="-8"
     inkscape:window-maximized="1"
     inkscape:current-layer="layer1" /><defs
     id="defs1" /><g
     inkscape:label="Calque 1"
     inkscape:groupmode="layer"
     id="layer1"
     transform="translate(-167.01787,-53.368937)"><g
       id="g21"><path
         class="st0"
         d="m 174.02934,53.395398 c -0.13229,-0.02646 -0.26459,-0.02646 -0.39688,-0.02646 -1.79916,0 -3.43958,0.767292 -4.86833,2.301875 -1.32292,1.375833 -1.74625,2.513542 -1.74625,3.862917 0,0.714375 0.13229,1.508125 0.3175,2.434166 0.34396,1.74625 1.40229,3.439584 2.8575,4.656667 1.11125,0.926041 2.35479,1.375833 3.67771,1.402291 0.68791,0 1.37583,-0.105833 2.09021,-0.370416 2.27541,-0.79375 4.47145,-3.042708 5.31812,-5.476875 0.26458,-0.767292 0.39688,-1.534583 0.39688,-2.248958 0,-1.74625 -0.79375,-3.280834 -2.32834,-4.365625 -1.87854,-1.349375 -3.65125,-2.090209 -5.31812,-2.169584 z"
         id="path1"
         style="fill:#00294b;fill-opacity:1;stroke-width:0.264583" /><g
         id="g5"
         transform="matrix(0.26458333,0,0,0.26458333,167.01788,53.36894)">
		<path
   class="st1"
   d="m 16.6,27.7 h -1.9 v 0.1 c 0,0.4 -0.2,3.6 -3.1,3.6 -2.6,0 -3.9,-2.3 -3.9,-6.9 0,-4.6 1.3,-6.9 3.9,-6.9 2.9,0 3.1,3.4 3.1,3.6 v 0.1 h 1.9 c 0.2,0 0.4,-0.1 0.5,-0.2 0.1,-0.1 0.2,-0.3 0.2,-0.4 0,-0.9 -0.5,-5.4 -5.7,-5.4 -4.2,0 -6.4,3.2 -6.4,9.2 0,6 2.2,9.2 6.4,9.2 5,0 5.6,-4.1 5.7,-5.3 0,-0.2 -0.1,-0.3 -0.2,-0.5 -0.1,-0.1 -0.3,-0.2 -0.5,-0.2 z"
   id="path2" />
		<path
   class="st1"
   d="m 46.1,23.4 v 0 l -1.6,-0.7 c -1.6,-0.7 -2.1,-1.4 -2.1,-2.6 0,-1.6 1.1,-2.6 2.9,-2.6 1,0 1.8,0.2 2.8,1.2 L 48.2,18.8 49,18 c 0.5,-0.5 0.4,-0.9 0.1,-1.2 -0.8,-1 -2.2,-1.6 -3.9,-1.6 -3.1,0 -5.4,2.1 -5.4,4.9 0,2.8 1.7,3.9 3.6,4.8 l 1.7,0.7 c 1.7,0.7 2.5,1.4 2.5,3 0,2.2 -2,2.8 -3.2,2.8 -1,0 -2.1,-0.2 -3.5,-1.8 L 40.8,29.5 40,30.4 c -0.5,0.4 -0.5,0.8 0,1.3 1.3,1.6 3.1,1.9 4.4,1.9 2.8,0 5.7,-1.7 5.7,-5.1 0,-2.8 -1.6,-4.1 -4,-5.1 z"
   id="path3" />
		<path
   class="st1"
   d="m 30,20.6 c 0,-2.8 -2.3,-5.2 -5.2,-5.2 -1.3,0 -2.6,0.5 -3.5,1.3 v -1 h -1.7 c -0.5,0 -0.7,0.3 -0.7,0.7 V 33 c 0,0.5 0.3,0.7 0.7,0.7 h 1.7 v -13 c 0,-1.7 1.4,-3.1 3.1,-3.1 1.7,0 3.1,1.4 3.1,3.1 v 13.1 h 1.7 c 0.5,0 0.7,-0.3 0.7,-0.7 C 30,33 30,20.6 30,20.6 Z"
   id="path4" />
		<path
   class="st1"
   d="m 39.8,16.5 c 0.1,-0.1 0.1,-0.2 0.1,-0.4 0,-0.3 -0.2,-0.5 -0.4,-0.6 -0.5,-0.2 -1,-0.2 -1.6,-0.2 -1.3,0 -2.6,0.5 -3.5,1.3 v -1 h -1.7 c -0.5,0 -0.7,0.3 -0.7,0.7 V 33 c 0,0.5 0.3,0.7 0.7,0.7 h 1.7 V 20.6 c 0,-1.7 1.4,-3.1 3.1,-3.1 0.4,0 0.9,0.1 1.3,0.3 z"
   id="path5" />
	</g></g></g><style
     type="text/css"
     id="style1">
	.st0{fill:#00294B;}
	.st1{fill:#FFFFFF;}
</style><style
     type="text/css"
     id="style1-0">
	.st0{fill:#62003C;}
</style></svg>
