<?xml version="1.0" encoding="UTF-8" standalone="no"?>
<!-- Created with Inkscape (http://www.inkscape.org/) -->

<svg
   width="16"
   height="16"
   viewBox="0 0 4.2333333 4.2333333"
   version="1.1"
   id="svg1"
   inkscape:version="1.3.2 (091e20e, 2023-11-25)"
   sodipodi:docname="logo_animation.svg"
   xmlns:inkscape="http://www.inkscape.org/namespaces/inkscape"
   xmlns:sodipodi="http://sodipodi.sourceforge.net/DTD/sodipodi-0.dtd"
   xmlns:xlink="http://www.w3.org/1999/xlink"
   xmlns="http://www.w3.org/2000/svg"
   xmlns:svg="http://www.w3.org/2000/svg">
  <sodipodi:namedview
     id="namedview1"
     pagecolor="#ffffff"
     bordercolor="#000000"
     borderopacity="0.25"
     inkscape:showpageshadow="2"
     inkscape:pageopacity="0.0"
     inkscape:pagecheckerboard="0"
     inkscape:deskcolor="#d1d1d1"
     inkscape:document-units="mm"
     inkscape:zoom="22.967175"
     inkscape:cx="8.2726761"
     inkscape:cy="10.732709"
     inkscape:window-width="1280"
     inkscape:window-height="772"
     inkscape:window-x="0"
     inkscape:window-y="0"
     inkscape:window-maximized="1"
     inkscape:current-layer="layer1" />
  <defs
     id="defs1">
    <linearGradient
       inkscape:collect="always"
       xlink:href="#linearGradient44"
       id="linearGradient45"
       x1="104.63871"
       y1="162.70557"
       x2="119.91307"
       y2="162.70557"
       gradientUnits="userSpaceOnUse"
       gradientTransform="matrix(0.11868507,0,0,0.11868507,-11.718074,-18.929546)" />
    <linearGradient
       id="linearGradient44"
       inkscape:collect="always">
      <stop
         style="stop-color:#93cf62;stop-opacity:0.25;"
         offset="0"
         id="stop44" />
      <stop
         style="stop-color:#93cf62;stop-opacity:1;"
         offset="1"
         id="stop45" />
    </linearGradient>
    <linearGradient
       inkscape:collect="always"
       xlink:href="#linearGradient46"
       id="linearGradient47"
       x1="118.40793"
       y1="162.74889"
       x2="128.0322"
       y2="162.74889"
       gradientUnits="userSpaceOnUse"
       gradientTransform="matrix(0.11868507,0,0,0.11868507,-11.718074,-18.929546)" />
    <linearGradient
       id="linearGradient46"
       inkscape:collect="always">
      <stop
         style="stop-color:#93cf62;stop-opacity:0.25;"
         offset="0.09470752"
         id="stop46" />
      <stop
         style="stop-color:#93cf62;stop-opacity:1;"
         offset="1"
         id="stop47" />
    </linearGradient>
    <linearGradient
       inkscape:collect="always"
       xlink:href="#linearGradient48"
       id="linearGradient49"
       x1="114.35545"
       y1="172.42258"
       x2="132.69221"
       y2="172.42258"
       gradientUnits="userSpaceOnUse"
       gradientTransform="matrix(0.11868507,0,0,0.11868507,-11.718074,-18.929546)" />
    <linearGradient
       id="linearGradient48"
       inkscape:collect="always">
      <stop
         style="stop-color:#93cf62;stop-opacity:0.25;"
         offset="0.15598886"
         id="stop48" />
      <stop
         style="stop-color:#93cf62;stop-opacity:1;"
         offset="1"
         id="stop49" />
    </linearGradient>
    <linearGradient
       inkscape:collect="always"
       xlink:href="#linearGradient42"
       id="linearGradient43"
       x1="123.22353"
       y1="169.94797"
       x2="125.82842"
       y2="169.94797"
       gradientUnits="userSpaceOnUse"
       gradientTransform="matrix(0.11868507,0,0,0.11868507,-11.718074,-18.929546)" />
    <linearGradient
       id="linearGradient42"
       inkscape:collect="always">
      <stop
         style="stop-color:#93cf62;stop-opacity:0.25;"
         offset="0.0988858"
         id="stop42" />
      <stop
         style="stop-color:#93cf62;stop-opacity:1;"
         offset="1"
         id="stop43" />
    </linearGradient>
    <linearGradient
       inkscape:collect="always"
       xlink:href="#linearGradient44"
       id="linearGradient51"
       x1="114.11705"
       y1="182.92578"
       x2="126.04919"
       y2="182.92578"
       gradientUnits="userSpaceOnUse"
       gradientTransform="matrix(0.11868507,0,0,0.11868507,-11.718074,-18.929546)" />
    <linearGradient
       inkscape:collect="always"
       xlink:href="#linearGradient44"
       id="linearGradient53"
       x1="118.41251"
       y1="183.19325"
       x2="128.18161"
       y2="183.19325"
       gradientUnits="userSpaceOnUse"
       gradientTransform="matrix(0.11868507,0,0,0.11868507,-11.718074,-18.929546)" />
    <linearGradient
       inkscape:collect="always"
       xlink:href="#linearGradient44"
       id="linearGradient41"
       x1="123.25684"
       y1="175.74773"
       x2="128.67143"
       y2="175.74773"
       gradientUnits="userSpaceOnUse"
       gradientTransform="matrix(0.11868507,0,0,0.11868507,-11.718074,-18.929546)" />
    <linearGradient
       inkscape:collect="always"
       xlink:href="#linearGradient58"
       id="linearGradient59"
       x1="106.93511"
       y1="182.19048"
       x2="108.69835"
       y2="182.19048"
       gradientUnits="userSpaceOnUse"
       gradientTransform="matrix(0.11868507,0,0,0.11868507,-11.718074,-18.929546)" />
    <linearGradient
       id="linearGradient58"
       inkscape:collect="always">
      <stop
         style="stop-color:#93cf62;stop-opacity:0.25;"
         offset="0.00139276"
         id="stop58" />
      <stop
         style="stop-color:#93cf62;stop-opacity:1;"
         offset="1"
         id="stop59" />
    </linearGradient>
    <linearGradient
       inkscape:collect="always"
       xlink:href="#linearGradient44"
       id="linearGradient57"
       x1="104.91968"
       y1="183.18744"
       x2="119.71035"
       y2="183.18744"
       gradientUnits="userSpaceOnUse"
       gradientTransform="matrix(0.11868507,0,0,0.11868507,-11.718074,-18.929546)" />
    <linearGradient
       inkscape:collect="always"
       xlink:href="#linearGradient60"
       id="linearGradient61"
       x1="100.43935"
       y1="173.01666"
       x2="108.67583"
       y2="173.01666"
       gradientUnits="userSpaceOnUse"
       gradientTransform="matrix(0.11868507,0,0,0.11868507,-11.718074,-18.929546)" />
    <linearGradient
       id="linearGradient60"
       inkscape:collect="always">
      <stop
         style="stop-color:#93cf62;stop-opacity:1;"
         offset="0"
         id="stop60" />
      <stop
         style="stop-color:#93cf62;stop-opacity:0.25;"
         offset="1"
         id="stop61" />
    </linearGradient>
    <linearGradient
       inkscape:collect="always"
       xlink:href="#linearGradient62"
       id="linearGradient63"
       x1="107.44184"
       y1="167.16051"
       x2="115.02055"
       y2="167.16051"
       gradientUnits="userSpaceOnUse"
       gradientTransform="matrix(0.11868507,0,0,0.11868507,-11.718074,-18.929546)" />
    <linearGradient
       id="linearGradient62"
       inkscape:collect="always">
      <stop
         style="stop-color:#93cf62;stop-opacity:0.25;"
         offset="0"
         id="stop62" />
      <stop
         style="stop-color:#93cf62;stop-opacity:0.25;"
         offset="1"
         id="stop63" />
    </linearGradient>
    <linearGradient
       inkscape:collect="always"
       xlink:href="#linearGradient44"
       id="linearGradient55"
       x1="105.04676"
       y1="178.14397"
       x2="114.91341"
       y2="178.14397"
       gradientUnits="userSpaceOnUse"
       gradientTransform="matrix(0.11868507,0,0,0.11868507,-11.718074,-18.929546)" />
    <radialGradient
       inkscape:collect="always"
       xlink:href="#linearGradient38"
       id="radialGradient39"
       cx="116.38701"
       cy="174.28369"
       fx="116.38701"
       fy="174.28369"
       r="6.9171772"
       gradientTransform="matrix(0.12975764,0,0,0.12104652,-13.002997,-19.018157)"
       gradientUnits="userSpaceOnUse" />
    <linearGradient
       id="linearGradient38"
       inkscape:collect="always">
      <stop
         style="stop-color:#ecc3f0;stop-opacity:1;"
         offset="0"
         id="stop39" />
      <stop
         style="stop-color:#c253ff;stop-opacity:1;"
         offset="0.83704734"
         id="stop38" />
    </linearGradient>
  </defs>
  <g
     inkscape:label="Layer 1"
     inkscape:groupmode="layer"
     id="layer1">
    <g
       id="ellipse_horizontal"
       transform="matrix(1.0932937,0,0,1.0932937,-0.19170015,0.1591905)">
      <path
         d="M 3.666566,2.4005656 V 2.3572336 L 3.718873,2.3026886 C 3.9383062,2.0738588 4.0087113,1.8268016 3.9270964,1.5720156 3.8885107,1.4515598 3.8200044,1.346965 3.7034355,1.2305278 3.589702,1.116926 3.4855452,1.0445008 3.3131421,0.9591378 3.0076135,0.80786062 2.7097448,0.73239709 2.3037647,0.70341657 2.2285504,0.69805201 1.9851463,0.69817069 1.9107581,0.70365394 l -0.056547,0.004142 0.039583,-0.036415 0.039584,-0.0364161 0.048065,-0.004107 c 0.077411,-0.006623 0.3536565,0.001519 0.4694955,0.0138339 0.1841945,0.0195771 0.3253692,0.047042 0.4976121,0.0968079 C 3.5355816,0.9111107 3.9260911,1.232409 4.0155215,1.619371 c 0.012108,0.052394 0.014749,0.078068 0.014977,0.145604 3.56e-4,0.096366 -0.00764,0.1514813 -0.033156,0.2294467 -0.032948,0.1006711 -0.090707,0.2003808 -0.1733621,0.2992751 -0.044553,0.053306 -0.1251012,0.1329558 -0.1454901,0.1438677 -0.011643,0.00623 -0.011924,0.00538 -0.011924,-0.036951 z"
         style="fill:url(#linearGradient49);stroke-width:0.118685"
         id="path1-6-9" />
      <path
         d="M 1.9736125,2.9235965 C 1.9064439,2.9216026 1.9089873,2.922647 1.8593734,2.8778137 l -0.033457,-0.030217 0.076339,0.00434 c 0.2140984,0.012201 0.502458,-0.00203 0.7018584,-0.034631 0.2153386,-0.035209 0.4480872,-0.1002509 0.5956412,-0.1664534 0.02126,-0.00954 0.039965,-0.016034 0.041566,-0.014433 0.0016,0.0016 5.934e-4,0.020038 -0.00223,0.04097 l -0.00514,0.03806 -0.044998,0.018791 c -0.1002153,0.041848 -0.2725757,0.093983 -0.4053582,0.12261 -0.264333,0.056988 -0.4957772,0.076057 -0.8099864,0.066737 z"
         style="fill:url(#linearGradient51);stroke-width:0.118685"
         id="path1-4-0" />
      <path
         d="m 0.97668522,2.8132015 c -0.009115,-0.010978 -0.001222,-0.01596 0.0601662,-0.038037 0.028769,-0.010349 0.052296,-0.020185 0.052283,-0.021863 -1.31e-5,-0.00169 -0.019114,-0.010646 -0.042448,-0.019921 -0.045094,-0.01793 -0.045154,-0.018003 -0.0509539,-0.063713 -0.00292,-0.023017 -0.002065,-0.029623 0.003834,-0.029401 0.004178,1.187e-4 0.0317732,0.010076 0.0613198,0.022055 0.029546,0.011972 0.054519,0.02101 0.055497,0.020083 9.495e-4,-9.495e-4 -0.00602,-0.023776 -0.01555,-0.050778 -0.020021,-0.056722 -0.020988,-0.06519 -0.00743,-0.065071 0.017796,1.187e-4 0.023857,0.00843 0.045754,0.062483 0.041063,0.1013523 0.049493,0.1297632 0.040239,0.1356131 -0.016911,0.010694 -0.1616015,0.056282 -0.1786115,0.056282 -0.00972,0 -0.0205669,-0.00348 -0.0240954,-0.00773 z"
         style="fill:url(#linearGradient59);stroke-width:0.118685"
         id="path1-44-5" />
      <path
         d="M 0.48639601,2.3802835 C 0.23682979,2.1336381 0.15029116,1.856048 0.23295947,1.5673418 0.26052764,1.471068 0.3288665,1.3487571 0.40827512,1.2535693 0.50228082,1.1408838 0.64920462,1.0228408 0.80408271,0.9355622 0.91430672,0.87344955 1.1801245,0.76058243 1.1801245,0.7758928 c 0,0.002053 -0.015105,0.0246651 -0.033567,0.0502382 C 1.1143525,0.8707424 1.1113155,0.8732763 1.0716325,0.8886365 0.81544799,0.98779312 0.57792,1.1519548 0.43876887,1.3260147 0.29018941,1.5118672 0.23769856,1.7325597 0.29259278,1.9405945 0.32677527,2.0701369 0.39426791,2.1840508 0.50555296,2.3000334 l 0.05206,0.054258 -0.003394,0.040563 c -0.001875,0.022309 -0.005341,0.040563 -0.007715,0.040563 -0.002374,0 -0.0294185,-0.02481 -0.0601009,-0.055134 z"
         style="fill:url(#linearGradient61);stroke-width:0.118685"
         id="path1-86-6" />
    </g>
    <g
       id="ellipse_ne"
       transform="matrix(1.0932937,0,0,1.0932937,-0.19170015,0.1591905)">
      <path
         d="M 3.4334958,0.73267838 C 3.4017072,0.71663928 3.3974405,0.71242477 3.3923477,0.69202043 3.3647677,0.58152345 3.3152736,0.46488569 3.2625822,0.38621055 3.2213261,0.32460825 3.1353732,0.23980658 3.0732617,0.19942755 2.9653533,0.1292728 2.8593485,0.09582853 2.7300435,0.09114047 2.6328725,0.08761553 2.5647603,0.09468916 2.4668226,0.1184511 l -0.069102,0.016769 -0.03127,-0.0207628 c -0.0172,-0.0114175 -0.031271,-0.02254304 -0.031271,-0.02471972 0,-0.0056613 0.1059311,-0.03708909 0.1724707,-0.05115802 0.079928,-0.01689956 0.2340683,-0.0214998 0.3110629,-0.0092812 0.1680379,0.0266626 0.2944327,0.0903775 0.4101875,0.20677194 0.092268,0.0927785 0.1528355,0.19211671 0.2003356,0.32857369 0.019136,0.0549726 0.048184,0.1631706 0.0482,0.17953846 9.5e-6,0.009792 -0.00361,0.008842 -0.043941,-0.0115006 z"
         style="fill:url(#linearGradient47);stroke-width:0.118685"
         id="path1-75-9" />
      <path
         d="M 2.9430749,2.5017565 C 3.135277,2.2124426 3.2791839,1.892552 3.3507284,1.5955782 3.3755835,1.49241 3.3950858,1.3833099 3.3878899,1.387687 c -0.00342,0.00208 -0.025291,0.017265 -0.048596,0.03374 -0.050025,0.035366 -0.057985,0.037025 -0.05553,0.011572 0.00155,-0.016115 0.00978,-0.024413 0.066802,-0.067392 0.035766,-0.026957 0.071878,-0.053096 0.080249,-0.058086 l 0.01522,-0.00907 0.054409,0.076192 c 0.048523,0.067952 0.054216,0.078469 0.052638,0.097233 -9.495e-4,0.011572 -0.00432,0.021776 -0.00743,0.022676 -0.00311,9.495e-4 -0.022195,-0.02217 -0.042411,-0.05127 -0.020216,-0.029098 -0.037335,-0.052385 -0.038042,-0.051749 -7.121e-4,5.934e-4 -0.00771,0.03594 -0.015562,0.078454 -0.027176,0.1471469 -0.07603,0.3191857 -0.1303874,0.4591617 -0.065739,0.1692864 -0.1824676,0.3978418 -0.2807139,0.54964 l -0.033631,0.051961 -0.043486,0.014482 c -0.023917,0.00796 -0.046494,0.014482 -0.050169,0.014482 -0.00368,0 0.010646,-0.026082 0.031822,-0.057961 z"
         style="fill:url(#linearGradient41);stroke-width:0.118685"
         id="path1-73-9" />
      <path
         d="M 1.4612004,3.5246355 C 1.3478431,3.5108146 1.2772587,3.4908138 1.1922327,3.4484242 1.050175,3.3776013 0.93057963,3.2557378 0.85617002,3.1059905 0.73336183,2.858868 0.70344607,2.5405107 0.76616045,2.148272 c 0.003727,-0.023325 0.008498,-0.045723 0.0105867,-0.049773 0.002302,-0.00445 0.0129699,0.012746 0.0269534,0.043436 l 0.0231448,0.050798 -0.007762,0.055522 c -0.0205242,0.1467042 -0.0237251,0.3260908 -0.008106,0.454184 0.0293093,0.2404108 0.11837293,0.4426182 0.25105215,0.5699957 0.083479,0.080144 0.1736042,0.1300444 0.2904425,0.1608124 0.063359,0.016685 0.071479,0.017482 0.1822362,0.017885 0.1259771,4.747e-4 0.1628727,-0.00439 0.2775688,-0.036518 0.1584279,-0.04437 0.320763,-0.125983 0.499816,-0.25128 0.053979,-0.037774 0.0729,-0.047988 0.093304,-0.050371 0.014076,-0.00165 0.039259,-0.00463 0.05596,-0.00663 0.019851,-0.00239 0.029643,-0.00164 0.028274,0.00216 C 2.485881,3.1188975 2.3702177,3.2115407 2.31224,3.2505762 2.1043643,3.3905379 1.9021617,3.4781501 1.710007,3.5115172 1.6479442,3.5222938 1.5041739,3.529873 1.4611968,3.5246319 Z"
         style="fill:url(#linearGradient57);stroke-width:0.118685"
         id="path1-50-9" />
      <path
         d="m 1.0533344,1.4635612 c -0.00171,-0.00736 -0.00682,-0.029878 -0.011382,-0.050031 l -0.00828,-0.036639 0.041346,-0.079283 c 0.1879521,-0.36039787 0.442706,-0.67668527 0.7320531,-0.90887243 0.030045,-0.0241097 0.057491,-0.0438897 0.060992,-0.043955 0.0035,-6.528e-5 0.021077,0.006385 0.039059,0.0143395 0.037572,0.0166159 0.04038,0.0107054 -0.031287,0.0658109 C 1.7598441,0.51411033 1.6248054,0.64308895 1.514344,0.77019829 1.3712905,0.93481211 1.2188158,1.1633984 1.1088861,1.3780498 c -0.026685,0.052107 -0.049403,0.095677 -0.050483,0.096821 -0.00107,0.00119 -0.00336,-0.00394 -0.00507,-0.011311 z"
         style="fill:url(#linearGradient63);fill-opacity:1;stroke-width:0.118685"
         id="path1-756-2" />
    </g>
    <g
       id="ellipse_no"
       transform="matrix(1.0932937,0,0,1.0932937,-0.19170015,0.1591905)">
      <path
         d="M 0.7411547,0.64924396 C 0.7062482,0.57925896 0.698485,0.55912286 0.70161,0.54667039 c 0.002136,-0.008522 0.006979,-0.0145555 0.0107529,-0.0134102 0.003774,0.001187 0.0196246,0.0266745 0.0352257,0.0567315 l 0.0283657,0.0546473 0.0212411,-0.0662251 C 0.88002335,0.32015163 1.0567692,0.13278351 1.2853768,0.06088765 1.380961,0.0308271 1.4178649,0.02586725 1.5448223,0.02602391 c 0.089665,1.1156e-4 0.1312147,0.0025755 0.1696425,0.01007636 0.2560192,0.0499498 0.5113772,0.17970107 0.7506724,0.38142533 0.04995,0.0421083 0.060048,0.0559743 0.036756,0.0504732 -0.007,-0.00165 -0.032405,-0.004771 -0.05646,-0.006919 C 2.4026172,0.4572458 2.4007712,0.4564278 2.3576582,0.4224739 2.2113494,0.30723632 2.0349027,0.20934368 1.872799,0.15347269 1.659033,0.07979537 1.4742356,0.07146605 1.3053918,0.12789843 1.132927,0.18554139 1.0054023,0.2975706 0.91842746,0.46784333 c -0.0294066,0.0575682 -0.0719718,0.16802838 -0.0719718,0.18676994 0,0.006053 0.0151929,3.5606e-4 0.0538593,-0.0203391 0.0296226,-0.0158278 0.0563434,-0.0287787 0.059377,-0.0287787 0.008047,0 0.006753,0.0315584 -0.001555,0.0381549 -0.003893,0.003086 -0.0445271,0.0252004 -0.0903087,0.0491439 l -0.0832386,0.0435337 z"
         style="fill:url(#linearGradient45);stroke-width:0.118685"
         id="path1-9-0" />
      <path
         d="M 3.1530857,1.4238361 C 3.0857189,1.2890894 3.0154407,1.1668699 2.9424577,1.0575348 2.9209983,1.0253878 2.9049841,0.99754191 2.90687,0.99565601 c 0.00741,-0.007406 0.090767,0.0217977 0.1024169,0.0358714 0.020927,0.025277 0.1128743,0.1787053 0.1602379,0.2673773 l 0.046356,0.086788 -0.00934,0.046099 c -0.00514,0.025355 -0.011346,0.049766 -0.013811,0.054247 -0.00311,0.00566 -0.015205,-0.013313 -0.039648,-0.062203 z"
         style="fill:url(#linearGradient43);stroke-width:0.118685"
         id="path1-5-8" />
      <path
         d="m 2.5506961,3.5253939 c -0.080057,-0.012944 -0.2081487,-0.048066 -0.214852,-0.058913 -0.00153,-0.00247 0.011643,-0.014064 0.029272,-0.025767 l 0.032046,-0.021278 0.065233,0.015363 c 0.1814754,0.04274 0.328868,0.039926 0.4687989,-0.00895 C 3.2012007,3.331542 3.3695139,3.081463 3.4158189,2.7058022 3.4247321,2.6335159 3.4280292,2.43779 3.4213971,2.3748264 3.4195931,2.3577203 3.414276,2.310645 3.409576,2.2702126 l -0.00856,-0.073511 0.022681,-0.050818 c 0.012474,-0.027949 0.024874,-0.051548 0.027556,-0.052443 0.00475,-0.00158 0.022538,0.099716 0.036499,0.2078745 0.011287,0.08741 0.00929,0.3552256 -0.0033,0.4439 -0.059878,0.4217284 -0.28182,0.6979821 -0.6228984,0.7753316 -0.05651,0.012814 -0.2435477,0.015733 -0.3108658,0.00485 z"
         style="fill:url(#linearGradient53);fill-opacity:1;stroke-width:0.118685"
         id="path1-95-6" />
      <path
         d="M 1.795725,3.1458544 C 1.5287215,2.9327091 1.2870728,2.6421016 1.1014885,2.3109643 0.93196706,2.0084871 0.82534632,1.7209951 0.77052806,1.4185535 c -0.007608,-0.041987 -0.015473,-0.09035 -0.0174764,-0.1074729 l -0.003644,-0.031133 0.0289841,-0.021639 c 0.015943,-0.011902 0.0296962,-0.020794 0.0305602,-0.01976 8.308e-4,0.00107 0.005839,0.032415 0.0110733,0.069737 0.0683543,0.4881482 0.32134694,1.0315869 0.67233074,1.4441683 0.1062315,0.1248757 0.2879336,0.2963744 0.3983878,0.376018 0.016329,0.011774 0.029688,0.023387 0.029688,0.025807 0,0.00369 -0.061438,0.034219 -0.068866,0.034219 -0.00133,0 -0.02646,-0.019189 -0.055841,-0.042644 z"
         style="fill:url(#linearGradient55);stroke-width:0.118685"
         id="path1-17-6" />
    </g>
    <path
       d="m 1.7827216,2.9095151 c -0.061206,-0.014372 -0.1227365,-0.05956 -0.1433524,-0.1052776 -0.010332,-0.022907 -0.012145,-0.024089 -0.030033,-0.019488 -0.010474,0.00269 -0.046859,0.00477 -0.08086,0.00458 -0.055351,-2.595e-4 -0.065564,-0.00216 -0.097542,-0.018088 -0.04266,-0.021232 -0.086582,-0.066218 -0.1042128,-0.1067383 -0.01234,-0.028365 -0.018922,-0.088947 -0.010572,-0.097341 0.00223,-0.00224 0.014751,-0.00117 0.02782,0.00251 0.037346,0.010364 0.1106495,0.00854 0.1222395,-0.00305 0.00535,-0.00535 0.00972,-0.012093 0.00972,-0.015014 0,-0.015759 -0.021229,-0.024729 -0.058523,-0.024729 -0.082993,0 -0.1645301,-0.042682 -0.1937671,-0.1014314 -0.017555,-0.035276 -0.020027,-0.090438 -0.00583,-0.1300587 0.01112,-0.031043 0.018702,-0.03329 0.035015,-0.010375 0.036441,0.051176 0.1450314,0.1167702 0.2478333,0.1497014 0.060027,0.01923 0.085714,0.036431 0.1025608,0.068676 0.02528,0.048394 -0.00737,0.099544 -0.080922,0.126746 -0.02544,0.0094 -0.031255,0.014377 -0.032847,0.028062 -0.00155,0.013376 0.00104,0.017391 0.013613,0.02053 0.019419,0.00488 0.06762,-0.010758 0.099066,-0.032124 0.021179,-0.014391 0.027845,-0.015792 0.059436,-0.012495 0.083924,0.00877 0.1441685,0.048457 0.169553,0.1116929 0.016902,0.042104 0.028586,0.051503 0.051213,0.041193 0.013876,-0.00632 0.015201,-0.00981 0.01221,-0.032137 -0.00308,-0.023066 -0.024701,-0.060423 -0.061499,-0.1063282 -0.011588,-0.014457 -0.014363,-0.026652 -0.016168,-0.071097 -0.00241,-0.059206 -0.00689,-0.069103 -0.031345,-0.069103 -0.025489,0 -0.031391,0.010692 -0.031391,0.056878 0,0.023122 -0.00104,0.04204 -0.00216,0.04204 -0.00117,0 -0.010233,-0.00265 -0.020093,-0.00588 -0.00986,-0.00324 -0.029051,-0.00872 -0.042653,-0.012184 l -0.024729,-0.00631 v -0.045 c 0,-0.040549 -0.00196,-0.047812 -0.019743,-0.073424 C 1.6228241,2.4328749 1.5874287,2.4125145 1.5174151,2.3912029 1.4573426,2.3729219 1.3931774,2.3397311 1.3414794,2.3001991 1.218765,2.2063636 1.1722936,2.0764179 1.2199445,1.9603574 c 0.011951,-0.029103 0.045375,-0.082618 0.051603,-0.082618 0.00249,0 0.00902,0.016139 0.014495,0.035865 0.022773,0.081911 0.1065546,0.1384553 0.2201909,0.1486075 l 0.045755,0.00409 0.011704,0.040185 c 0.00644,0.022102 0.013233,0.044821 0.015107,0.050486 0.00282,0.00852 -0.00271,0.011069 -0.031668,0.014684 -0.043798,0.00548 -0.081834,5.191e-4 -0.1313861,-0.017218 l -0.038554,-0.013777 -0.01269,0.01269 c -0.018381,0.018382 -0.01008,0.031098 0.030095,0.046134 0.068984,0.025814 0.1494471,0.030536 0.2028891,0.011899 0.015693,-0.00548 0.02359,-0.004 0.050155,0.00935 0.017342,0.0087 0.047054,0.018956 0.066027,0.022765 0.026986,0.00542 0.035137,0.00977 0.037439,0.019965 0.00162,0.00717 0.0059,0.026946 0.00952,0.043947 0.014644,0.06881 0.066492,0.1234749 0.1594151,0.1680725 0.1119198,0.053717 0.1609046,0.120576 0.1624241,0.2216935 7.785e-4,0.054242 -0.0165,0.098022 -0.055509,0.1403408 -0.056834,0.061657 -0.1594267,0.091896 -0.2442247,0.071986 z m 0.4613208,-0.062775 -0.088137,-0.050912 0.00159,-0.1731058 0.00159,-0.1731057 0.1004638,-0.057742 0.1004628,-0.057743 v -0.097939 -0.097939 l 0.017001,-0.011885 c 0.00936,-0.00654 0.056646,-0.034831 0.1050994,-0.062875 l 0.088099,-0.050988 V 1.8404432 c 0,-0.1685396 2.596e-4,-0.1721404 0.012794,-0.1761161 0.019237,-0.00611 0.036618,-0.039325 0.036645,-0.070034 1.81e-5,-0.022265 -0.00353,-0.030449 -0.020633,-0.04755 -0.023963,-0.023962 -0.044559,-0.030625 -0.076269,-0.024677 -0.065284,0.012249 -0.082255,0.099225 -0.027291,0.1398619 l 0.019114,0.014133 v 0.1557662 0.1557663 l -0.071904,0.040906 c -0.039548,0.022498 -0.074322,0.040904 -0.077279,0.040904 -0.00296,0 -0.00527,-0.1131512 -0.00514,-0.2519297 L 2.360508,1.5655429 2.380363,1.5530599 c 0.038321,-0.024102 0.04284,-0.087223 0.00855,-0.119438 -0.034804,-0.032696 -0.081808,-0.029074 -0.1151236,0.00888 -0.030836,0.03512 -0.02178,0.092249 0.018386,0.1159762 l 0.018495,0.010922 -0.0016,0.3681484 -0.0016,0.3681484 -0.05564,0.032074 c -0.030604,0.01764 -0.071638,0.041188 -0.091189,0.052326 l -0.03555,0.020253 v -0.073868 -0.07387 l 0.019126,-0.00383 c 0.010528,-0.0021 0.028604,-0.013301 0.040186,-0.024883 0.018612,-0.018612 0.021058,-0.024831 0.021058,-0.053546 0,-0.029859 -0.002,-0.03439 -0.024729,-0.056012 L 2.1560014,2.1008164 V 1.730649 1.3604803 l 0.085565,-0.050477 c 0.047061,-0.027764 0.088756,-0.050478 0.092658,-0.050478 0.0039,0 0.066245,0.034396 0.1385435,0.076435 0.072299,0.04204 0.1606646,0.093201 0.1963675,0.1136923 l 0.064914,0.037255 0.0016,0.345699 0.0016,0.345699 -0.075353,0.042924 c -0.041445,0.023609 -0.077739,0.043887 -0.080654,0.045063 -0.00292,0.00117 -0.015206,-0.00256 -0.027307,-0.00831 -0.06461,-0.030659 -0.1311525,0.039674 -0.1010816,0.106841 0.031386,0.070103 0.1375937,0.05203 0.1478965,-0.025165 l 0.00348,-0.026053 0.091189,-0.05239 0.09119,-0.052388 V 2.0158391 c 0,-0.1341278 -0.00208,-0.1942809 -0.00682,-0.1972133 -0.011679,-0.00722 -0.029996,-0.054179 -0.029996,-0.076882 0,-0.047395 0.041333,-0.1016096 0.089615,-0.1175435 0.031148,-0.010277 0.074401,-0.00342 0.1028614,0.016294 0.027504,0.019058 0.054605,0.069327 0.05441,0.1009176 -1.298e-4,0.024919 -0.017569,0.067236 -0.032887,0.079912 -0.00922,0.00763 -0.010277,0.032358 -0.010463,0.2442026 l -2.58e-4,0.2357188 -0.275177,0.1566785 -0.2751758,0.1566797 -0.02218,-0.010528 c -0.031651,-0.01502 -0.062009,-0.00874 -0.086638,0.017937 -0.036348,0.039361 -0.030998,0.095126 0.011613,0.1211092 0.053142,0.032401 0.1217658,-0.00631 0.122678,-0.069195 1.298e-4,-0.011652 0.016312,-0.023261 0.092693,-0.066658 0.08011,-0.045517 0.093393,-0.05526 0.099244,-0.0728 0.026974,-0.080849 0.133636,-0.1074751 0.196318,-0.049006 0.042179,0.039343 0.050141,0.1091479 0.017991,0.1577321 -0.02352,0.035541 -0.074666,0.059768 -0.1149056,0.05443 -0.02959,-0.00391 -0.03041,-0.00354 -0.2023582,0.095724 -0.094957,0.054817 -0.1754298,0.1007098 -0.1788294,0.1019868 -0.0034,0.0013 -0.045845,-0.02059 -0.09432,-0.048593 z M 2.7585483,2.6355733 c 0.021748,-0.00909 0.040397,-0.036425 0.040397,-0.059218 0,-0.031243 -0.035093,-0.068006 -0.064915,-0.068006 -0.0304,0 -0.064944,0.036861 -0.06489,0.069244 3.76e-5,0.023526 0.022278,0.053363 0.044563,0.05979 0.011186,0.00321 0.021113,0.00611 0.022071,0.00642 9.083e-4,2.595e-4 0.011211,-0.0034 0.022773,-0.00822 z M 2.9002916,1.8003714 c 0.042983,-0.020396 0.051325,-0.068388 0.017943,-0.1032299 -0.013495,-0.014085 -0.021827,-0.017225 -0.045708,-0.017225 -0.025022,0 -0.031498,0.00272 -0.04521,0.019021 -0.02279,0.027083 -0.022351,0.065488 0.00104,0.087241 0.027334,0.025469 0.042089,0.028378 0.07198,0.014193 z M 2.3213598,2.72419 c -0.00596,-0.00347 -0.015135,-0.014648 -0.020411,-0.024852 -0.022683,-0.043865 0.024973,-0.088632 0.07423,-0.06973 0.012223,0.00468 0.028096,0.034054 0.028096,0.051969 0,0.032751 -0.052213,0.059914 -0.081916,0.042613 z M 1.9548671,2.4377786 c -0.091282,-0.043148 -0.125839,-0.082693 -0.1390392,-0.1591088 -0.00896,-0.051943 -0.026287,-0.070456 -0.07431,-0.079452 -0.085408,-0.016 -0.1203073,-0.055464 -0.1203073,-0.1360418 0,-0.038433 0.00301,-0.052492 0.017574,-0.082153 0.021578,-0.043945 0.018799,-0.05531 -0.012884,-0.052689 -0.02139,0.00176 -0.024561,0.00462 -0.039957,0.035924 -0.00919,0.018702 -0.018305,0.039269 -0.020237,0.045703 -0.00314,0.010463 -0.00781,0.011302 -0.04416,0.0079 C 1.4516356,2.011331 1.383936,1.970908 1.3581,1.920264 1.343864,1.89236 1.34241,1.844735 1.35505,1.820496 1.36302,1.805227 1.36267,1.800629 1.3517,1.775838 1.323038,1.711042 1.331685,1.6372595 1.375247,1.5749057 1.396276,1.5448037 1.444796,1.5005797 1.45679,1.5005797 c 0.00256,0 0.00794,0.014287 0.011964,0.031751 0.012495,0.054144 0.04275,0.1086165 0.085474,0.1539055 0.043509,0.046123 0.056634,0.053585 0.07601,0.043215 0.021024,-0.01125 0.014437,-0.028242 -0.026042,-0.067151 -0.1018731,-0.09792 -0.1226378,-0.2139859 -0.050025,-0.2796044 0.038852,-0.03511 0.092412,-0.056159 0.1291687,-0.050765 0.015869,0.00234 0.020807,-9.083e-4 0.037655,-0.024828 0.054918,-0.077914 0.2004158,-0.089311 0.277209,-0.021715 0.071145,0.062624 0.079113,0.1610604 0.018819,0.2324893 l -0.017211,0.020389 0.012781,0.013615 c 0.021556,0.022961 0.037995,0.066886 0.038141,0.1019102 1.298e-4,0.039569 -0.012444,0.071809 -0.038666,0.098907 -0.016504,0.017053 -0.018438,0.021973 -0.012145,0.030912 0.041905,0.059563 0.052704,0.094505 0.043915,0.1420923 -0.014187,0.076807 -0.083325,0.106676 -0.158534,0.068487 -0.044109,-0.022397 -0.057006,-0.05223 -0.056944,-0.1317078 2.72e-5,-0.034133 0.00421,-0.095338 0.00928,-0.136012 0.00507,-0.040674 0.00923,-0.094124 0.00923,-0.1187775 0,-0.086431 -0.037606,-0.1452287 -0.1058527,-0.1654955 -0.041849,-0.012431 -0.050463,-0.012132 -0.068112,0.00235 -0.021074,0.017294 -0.00947,0.033155 0.028193,0.038569 0.038749,0.00556 0.055057,0.01732 0.071672,0.051641 0.016815,0.034736 0.017476,0.083666 0.0028,0.2075097 -0.015113,0.1275362 -0.014492,0.1821499 0.00247,0.2171857 0.029236,0.060394 0.085114,0.092098 0.1698112,0.096352 l 0.054611,0.00273 -0.00423,0.036494 c -0.00405,0.034842 -0.00324,0.037956 0.017861,0.06877 0.045016,0.065755 0.05538,0.1270352 0.035541,0.210171 -0.012898,0.05404 -0.027932,0.091422 -0.036447,0.090607 -0.00247,-2.595e-4 -0.029602,-0.012301 -0.060308,-0.02682 z m 0.5315756,-0.06948 c -0.032357,-0.034915 -0.00966,-0.088742 0.037404,-0.088742 0.026155,0 0.052535,0.02394 0.052535,0.047676 0,0.050805 -0.056853,0.076763 -0.089939,0.041066 z M 2.1250715,2.1806405 c 0,-0.04437 0.00117,-0.049459 0.011679,-0.049459 0.023054,0 0.04059,0.021367 0.04059,0.049459 0,0.028091 -0.017535,0.049458 -0.04059,0.049458 -0.010474,0 -0.011679,-0.00508 -0.011679,-0.049458 z M 2.5026429,1.6326701 c -0.042834,-0.054456 0.025431,-0.1195224 0.074215,-0.070738 0.020138,0.02014 0.02244,0.035915 0.00903,0.061856 -0.010343,0.020008 -0.02055,0.025172 -0.049745,0.025172 -0.01498,0 -0.024215,-0.00449 -0.033496,-0.01629 z M 2.2956354,1.5248385 c -0.0088,-0.010463 -0.016006,-0.024242 -0.016006,-0.030622 0,-0.047063 0.054259,-0.072007 0.089917,-0.041334 0.036283,0.031209 0.011873,0.090977 -0.037162,0.090977 -0.015574,0 -0.024731,-0.00473 -0.036749,-0.019021 z"
       style="fill:url(#radialGradient39);stroke-width:0.129758"
       id="brain" />
  </g>
</svg>
