<?xml version="1.0" encoding="UTF-8" standalone="no"?>
<!-- Created with Inkscape (http://www.inkscape.org/) -->

<svg
   width="78.803841mm"
   height="29.52034mm"
   viewBox="0 0 78.803841 29.52034"
   version="1.1"
   id="svg1"
   inkscape:version="1.3.2 (091e20e, 2023-11-25, custom)"
   sodipodi:docname="logos.svg"
   xml:space="preserve"
   xmlns:inkscape="http://www.inkscape.org/namespaces/inkscape"
   xmlns:sodipodi="http://sodipodi.sourceforge.net/DTD/sodipodi-0.dtd"
   xmlns="http://www.w3.org/2000/svg"
   xmlns:svg="http://www.w3.org/2000/svg"><sodipodi:namedview
     id="namedview1"
     pagecolor="#ffffff"
     bordercolor="#000000"
     borderopacity="0.25"
     inkscape:showpageshadow="2"
     inkscape:pageopacity="0.0"
     inkscape:pagecheckerboard="0"
     inkscape:deskcolor="#d1d1d1"
     inkscape:document-units="mm"
     inkscape:zoom="0.64"
     inkscape:cx="227.34375"
     inkscape:cy="614.84375"
     inkscape:window-width="1920"
     inkscape:window-height="1017"
     inkscape:window-x="-8"
     inkscape:window-y="-8"
     inkscape:window-maximized="1"
     inkscape:current-layer="layer1" /><defs
     id="defs1" /><g
     inkscape:label="Calque 1"
     inkscape:groupmode="layer"
     id="layer1"
     transform="translate(-95.623118,-211.53117)"><g
       id="g211"
       inkscape:export-filename="..\logos\neuropsi.svg"
       inkscape:export-xdpi="96"
       inkscape:export-ydpi="96"
       transform="translate(-0.41341146,-2.0670573)"><text
         xml:space="preserve"
         style="font-size:17.1517px;line-height:1.7;font-family:Arial;-inkscape-font-specification:'Arial, Normal';text-align:start;letter-spacing:-0.407761px;word-spacing:0px;text-anchor:start;opacity:1;fill:#095192;fill-opacity:1;fill-rule:evenodd;stroke:#095192;stroke-width:0;stroke-dasharray:none;stroke-opacity:1"
         x="102.59122"
         y="216.81065"
         id="text298"
         transform="scale(0.92284022,1.0836112)"><tspan
           sodipodi:role="line"
           id="tspan298"
           style="font-style:normal;font-variant:normal;font-weight:normal;font-stretch:normal;font-family:Ubuntu;-inkscape-font-specification:Ubuntu;letter-spacing:-0.407761px;fill:#095192;fill-opacity:1;stroke:#095192;stroke-width:0;stroke-dasharray:none;stroke-opacity:1"
           x="102.59122"
           y="216.81065">Neuro</tspan></text><text
         xml:space="preserve"
         style="font-style:normal;font-variant:normal;font-weight:normal;font-stretch:normal;font-size:17.9762px;line-height:1.7;font-family:Ubuntu;-inkscape-font-specification:Ubuntu;letter-spacing:-1.02342px;word-spacing:0px;fill:#095192;fill-rule:evenodd;stroke:#095192;stroke-width:0;stroke-dasharray:none"
         x="150.87135"
         y="223.46507"
         id="text1"
         transform="scale(0.95133376,1.0511558)"><tspan
           sodipodi:role="line"
           id="tspan1"
           style="stroke-width:0"
           x="150.87135"
           y="223.46507">PSI</tspan></text><path
         style="fill:#f57d20;fill-opacity:1;fill-rule:evenodd;stroke:#f57d20;stroke-width:0.0276214;stroke-dasharray:none;stroke-opacity:1"
         d="m 151.38835,243.03993 c -2.85948,-0.18103 -4.91244,-0.69316 -7.01583,-1.7502 -1.13504,-0.57041 -1.79868,-1.05095 -2.66747,-1.93154 -0.93427,-0.94696 -1.54271,-1.80714 -2.12133,-2.99904 -0.81227,-1.67323 -1.11275,-2.90238 -1.17911,-4.82338 -0.0932,-2.69705 0.29695,-5.14063 1.45364,-7.26925 1.33175,-2.45079 3.65255,-4.78531 6.08913,-6.46782 1.99879,-1.3802 5.27424,-2.74093 6.61027,-3.18184 1.54408,-0.50956 3.58074,-0.8922 5.26187,-0.98859 1.00439,-0.0576 3.68197,0.0432 4.7503,0.228 1.79135,0.3099 3.76896,0.94743 5.48111,1.82983 1.2457,0.642 2.42709,1.465 3.39829,2.4753 0.49208,0.51189 1.37757,1.57282 2.07806,2.88895 0.65255,1.22606 1.1343,2.67529 1.25801,4.0634 0.14267,1.60095 -0.0885,3.17884 -0.63464,4.33151 -1.17373,2.47732 -3.44507,4.1543 -6.80272,5.02259 -0.54802,0.14172 -1.02063,0.2306 -1.05025,0.19751 -0.0758,-0.0847 -0.7338,-3.61489 -0.68767,-3.68953 0.0208,-0.0337 0.0982,-0.0613 0.17191,-0.0613 0.25095,0 1.79194,-0.42004 2.38919,-0.65124 1.34967,-0.52247 3.34657,-1.78181 3.21642,-4.64117 -0.0783,-1.71973 -0.43833,-3.01842 -1.18897,-4.28871 -1.1676,-1.97592 -2.91009,-3.07848 -4.74202,-4.06998 -1.78425,-0.96569 -3.58865,-1.59487 -5.84455,-1.69893 -2.27011,-0.10471 -4.30825,0.0689 -6.17392,0.52605 -1.1649,0.28541 -3.8583,1.26255 -5.65459,2.1891 -1.0808,0.55749 -2.13587,1.20163 -3.04555,2.00873 -1.59718,1.41708 -3.08019,2.85942 -4.13846,4.88926 -0.80046,1.53533 -1.11513,2.80761 -1.27118,5.13978 -0.21736,3.24828 0.46138,5.75797 2.17195,8.03095 1.7756,2.35941 4.48906,3.77 8.42648,4.3805 1.13675,0.17624 4.16073,0.17804 5.4769,0.003 0.50012,-0.0664 0.92169,-0.10839 0.93683,-0.0933 0.0151,0.0151 -0.16204,0.0985 -0.39374,0.18514 -0.72652,0.27183 -2.413,0.35171 -4.55836,0.2159 z"
         id="path210"
         sodipodi:nodetypes="csssssssssasssssssssssassaasssscsccc" /></g></g><style
     type="text/css"
     id="style1">
	.st0{fill:#00294B;}
	.st1{fill:#FFFFFF;}
</style><style
     type="text/css"
     id="style1-0">
	.st0{fill:#62003C;}
</style></svg>
