<?xml version="1.0" encoding="UTF-8" standalone="no"?>
<!-- Created with Inkscape (http://www.inkscape.org/) -->

<svg
   width="32.950195mm"
   height="35.462772mm"
   viewBox="0 0 32.950195 35.462772"
   version="1.1"
   id="svg1"
   inkscape:version="1.3.2 (091e20e, 2023-11-25, custom)"
   sodipodi:docname="logos.svg"
   xml:space="preserve"
   xmlns:inkscape="http://www.inkscape.org/namespaces/inkscape"
   xmlns:sodipodi="http://sodipodi.sourceforge.net/DTD/sodipodi-0.dtd"
   xmlns:xlink="http://www.w3.org/1999/xlink"
   xmlns="http://www.w3.org/2000/svg"
   xmlns:svg="http://www.w3.org/2000/svg"><sodipodi:namedview
     id="namedview1"
     pagecolor="#ffffff"
     bordercolor="#000000"
     borderopacity="0.25"
     inkscape:showpageshadow="2"
     inkscape:pageopacity="0.0"
     inkscape:pagecheckerboard="0"
     inkscape:deskcolor="#d1d1d1"
     inkscape:document-units="mm"
     inkscape:zoom="0.5"
     inkscape:cx="374"
     inkscape:cy="737"
     inkscape:window-width="1920"
     inkscape:window-height="1017"
     inkscape:window-x="-8"
     inkscape:window-y="-8"
     inkscape:window-maximized="1"
     inkscape:current-layer="layer1" /><defs
     id="defs1"><linearGradient
       id="linearGradient62"
       inkscape:collect="always"><stop
         style="stop-color:#93cf62;stop-opacity:0.25;"
         offset="0"
         id="stop62" /><stop
         style="stop-color:#93cf62;stop-opacity:0.25;"
         offset="1"
         id="stop63" /></linearGradient><linearGradient
       id="linearGradient60"
       inkscape:collect="always"><stop
         style="stop-color:#93cf62;stop-opacity:1;"
         offset="0"
         id="stop60" /><stop
         style="stop-color:#93cf62;stop-opacity:0.25;"
         offset="1"
         id="stop61" /></linearGradient><linearGradient
       id="linearGradient58"
       inkscape:collect="always"><stop
         style="stop-color:#93cf62;stop-opacity:0.25;"
         offset="0.00139276"
         id="stop58" /><stop
         style="stop-color:#93cf62;stop-opacity:1;"
         offset="1"
         id="stop59" /></linearGradient><linearGradient
       id="linearGradient56"
       inkscape:collect="always"><stop
         style="stop-color:#93cf62;stop-opacity:0.25;"
         offset="0"
         id="stop56" /><stop
         style="stop-color:#93cf62;stop-opacity:1;"
         offset="1"
         id="stop57" /></linearGradient><linearGradient
       id="linearGradient54"
       inkscape:collect="always"><stop
         style="stop-color:#93cf62;stop-opacity:0.25;"
         offset="0"
         id="stop54" /><stop
         style="stop-color:#93cf62;stop-opacity:1;"
         offset="1"
         id="stop55" /></linearGradient><linearGradient
       id="linearGradient52"
       inkscape:collect="always"><stop
         style="stop-color:#93cf62;stop-opacity:0.25;"
         offset="0"
         id="stop52" /><stop
         style="stop-color:#93cf62;stop-opacity:1;"
         offset="1"
         id="stop53" /></linearGradient><linearGradient
       id="linearGradient50"
       inkscape:collect="always"><stop
         style="stop-color:#93cf62;stop-opacity:0.25;"
         offset="0"
         id="stop50" /><stop
         style="stop-color:#93cf62;stop-opacity:1;"
         offset="1"
         id="stop51" /></linearGradient><linearGradient
       id="linearGradient48"
       inkscape:collect="always"><stop
         style="stop-color:#93cf62;stop-opacity:0.25;"
         offset="0.15598886"
         id="stop48" /><stop
         style="stop-color:#93cf62;stop-opacity:1;"
         offset="1"
         id="stop49" /></linearGradient><linearGradient
       id="linearGradient46"
       inkscape:collect="always"><stop
         style="stop-color:#93cf62;stop-opacity:0.25;"
         offset="0.09470752"
         id="stop46" /><stop
         style="stop-color:#93cf62;stop-opacity:1;"
         offset="1"
         id="stop47" /></linearGradient><linearGradient
       id="linearGradient44"
       inkscape:collect="always"><stop
         style="stop-color:#93cf62;stop-opacity:0.25;"
         offset="0"
         id="stop44" /><stop
         style="stop-color:#93cf62;stop-opacity:1;"
         offset="1"
         id="stop45" /></linearGradient><linearGradient
       id="linearGradient42"
       inkscape:collect="always"><stop
         style="stop-color:#93cf62;stop-opacity:0.25;"
         offset="0.0988858"
         id="stop42" /><stop
         style="stop-color:#93cf62;stop-opacity:1;"
         offset="1"
         id="stop43" /></linearGradient><linearGradient
       id="linearGradient39"
       inkscape:collect="always"><stop
         style="stop-color:#93cf62;stop-opacity:0.25;"
         offset="0"
         id="stop40" /><stop
         style="stop-color:#93cf62;stop-opacity:1;"
         offset="1"
         id="stop41" /></linearGradient><linearGradient
       id="linearGradient38"
       inkscape:collect="always"><stop
         style="stop-color:#ecc3f0;stop-opacity:1;"
         offset="0"
         id="stop39" /><stop
         style="stop-color:#c253ff;stop-opacity:1;"
         offset="0.83704734"
         id="stop38" /></linearGradient><radialGradient
       inkscape:collect="always"
       xlink:href="#linearGradient38"
       id="radialGradient39"
       cx="116.38701"
       cy="174.28369"
       fx="116.38701"
       fy="174.28369"
       r="6.9171772"
       gradientTransform="matrix(1,0,0,0.93286623,-97.016131,-141.92551)"
       gradientUnits="userSpaceOnUse" /><linearGradient
       inkscape:collect="always"
       xlink:href="#linearGradient39"
       id="linearGradient41"
       x1="123.25684"
       y1="175.74773"
       x2="128.67143"
       y2="175.74773"
       gradientUnits="userSpaceOnUse"
       gradientTransform="translate(-97.016131,-153.62583)" /><linearGradient
       inkscape:collect="always"
       xlink:href="#linearGradient42"
       id="linearGradient43"
       x1="123.22353"
       y1="169.94797"
       x2="125.82842"
       y2="169.94797"
       gradientUnits="userSpaceOnUse"
       gradientTransform="translate(-97.016131,-153.62583)" /><linearGradient
       inkscape:collect="always"
       xlink:href="#linearGradient44"
       id="linearGradient45"
       x1="104.63871"
       y1="162.70557"
       x2="119.91307"
       y2="162.70557"
       gradientUnits="userSpaceOnUse"
       gradientTransform="translate(-97.016131,-153.62583)" /><linearGradient
       inkscape:collect="always"
       xlink:href="#linearGradient46"
       id="linearGradient47"
       x1="118.40793"
       y1="162.74889"
       x2="128.0322"
       y2="162.74889"
       gradientUnits="userSpaceOnUse"
       gradientTransform="translate(-97.016131,-153.62583)" /><linearGradient
       inkscape:collect="always"
       xlink:href="#linearGradient48"
       id="linearGradient49"
       x1="114.35545"
       y1="172.42258"
       x2="132.69221"
       y2="172.42258"
       gradientUnits="userSpaceOnUse"
       gradientTransform="translate(-97.016131,-153.62583)" /><linearGradient
       inkscape:collect="always"
       xlink:href="#linearGradient50"
       id="linearGradient51"
       x1="114.11705"
       y1="182.92578"
       x2="126.04919"
       y2="182.92578"
       gradientUnits="userSpaceOnUse"
       gradientTransform="translate(-97.016131,-153.62583)" /><linearGradient
       inkscape:collect="always"
       xlink:href="#linearGradient52"
       id="linearGradient53"
       x1="118.41251"
       y1="183.19325"
       x2="128.18161"
       y2="183.19325"
       gradientUnits="userSpaceOnUse"
       gradientTransform="translate(-97.016131,-153.62583)" /><linearGradient
       inkscape:collect="always"
       xlink:href="#linearGradient54"
       id="linearGradient55"
       x1="105.04676"
       y1="178.14397"
       x2="114.91341"
       y2="178.14397"
       gradientUnits="userSpaceOnUse"
       gradientTransform="translate(-97.016131,-153.62583)" /><linearGradient
       inkscape:collect="always"
       xlink:href="#linearGradient56"
       id="linearGradient57"
       x1="104.91968"
       y1="183.18744"
       x2="119.71035"
       y2="183.18744"
       gradientUnits="userSpaceOnUse"
       gradientTransform="translate(-97.016131,-153.62583)" /><linearGradient
       inkscape:collect="always"
       xlink:href="#linearGradient58"
       id="linearGradient59"
       x1="106.93511"
       y1="182.19048"
       x2="108.69835"
       y2="182.19048"
       gradientUnits="userSpaceOnUse"
       gradientTransform="translate(-97.016131,-153.62583)" /><linearGradient
       inkscape:collect="always"
       xlink:href="#linearGradient60"
       id="linearGradient61"
       x1="100.43935"
       y1="173.01666"
       x2="108.67583"
       y2="173.01666"
       gradientUnits="userSpaceOnUse"
       gradientTransform="translate(-97.016131,-153.62583)" /><linearGradient
       inkscape:collect="always"
       xlink:href="#linearGradient62"
       id="linearGradient63"
       x1="107.44184"
       y1="167.16051"
       x2="115.02055"
       y2="167.16051"
       gradientUnits="userSpaceOnUse"
       gradientTransform="translate(-97.016131,-153.62583)" /></defs><g
     inkscape:label="Calque 1"
     inkscape:groupmode="layer"
     id="layer1"
     transform="translate(-3.6864494,-6.0568732)"><g
       id="g287"><text
         xml:space="preserve"
         style="font-size:3.4398px;line-height:1.1;font-family:Arial;-inkscape-font-specification:'Arial, Normal';text-align:center;text-anchor:middle;fill:#515151;fill-opacity:1;stroke:none;stroke-width:0.417062"
         x="20.190939"
         y="41.475975"
         id="text1-2-6"><tspan
           sodipodi:role="line"
           id="tspan1-8-6"
           x="20.190939"
           y="41.475975"
           style="fill:#515151;fill-opacity:1;stroke:none;stroke-width:0.417062"><tspan
   style="font-weight:bold;fill:#515151;fill-opacity:1"
   id="tspan2-8-5">SENSO</tspan>MOTION LAB</tspan></text><g
         id="g286"
         transform="translate(0.61189946)"><path
           d="m 7.961089,11.33839 c -0.29411,-0.58967 -0.35952,-0.75933 -0.33319,-0.86425 0.018,-0.0718 0.0588,-0.12264 0.0906,-0.11299 0.0318,0.01 0.16535,0.22475 0.2968,0.478 l 0.239,0.46044 0.17897,-0.55799 c 0.69788,-2.17603 2.18708,-3.75473 4.11325,-4.3605 0.80536,-0.25328 1.1163,-0.29507 2.186,-0.29375 0.75549,9.4e-4 1.10557,0.0217 1.42935,0.0849 2.15713,0.42086 4.30869,1.5141 6.32491,3.21376 0.42086,0.35479 0.50594,0.47162 0.30969,0.42527 -0.059,-0.0139 -0.27303,-0.0402 -0.47571,-0.0583 -0.36075,-0.0323 -0.37631,-0.0392 -0.73956,-0.32528 -1.23275,-0.97095 -2.71943,-1.79576 -4.08526,-2.26651 -1.80112,-0.62078 -3.35816,-0.69096 -4.78078,-0.21548 -1.45313,0.48568 -2.52761,1.4296 -3.26043,2.86426 -0.24777,0.48505 -0.60641,1.41575 -0.60641,1.57366 0,0.051 0.12801,0.003 0.4538,-0.17137 0.24959,-0.13336 0.47473,-0.24248 0.50029,-0.24248 0.0678,0 0.0569,0.2659 -0.0131,0.32148 -0.0328,0.026 -0.37517,0.21233 -0.76091,0.41407 l -0.70134,0.3668 z"
           style="fill:url(#linearGradient45)"
           id="path1-9-0" /><path
           d="m 30.645839,12.04138 c -0.26784,-0.13514 -0.30379,-0.17065 -0.3467,-0.34257 -0.23238,-0.93101 -0.6494,-1.91376 -1.09336,-2.57665 -0.34761,-0.51904 -1.07182,-1.23355 -1.59515,-1.57377 -0.9092,-0.5911 -1.80236,-0.87289 -2.89184,-0.91239 -0.81873,-0.0297 -1.39262,0.0299 -2.21781,0.23011 l -0.58223,0.14129 -0.26347,-0.17494 c -0.14492,-0.0962 -0.26348,-0.18994 -0.26348,-0.20828 0,-0.0477 0.89254,-0.3125 1.45318,-0.43104 0.67345,-0.14239 1.97218,-0.18115 2.62091,-0.0782 1.41583,0.22465 2.48079,0.76149 3.4561,1.74219 0.77742,0.78172 1.28774,1.61871 1.68796,2.76845 0.16123,0.46318 0.40598,1.37482 0.40612,1.51273 8e-5,0.0825 -0.0304,0.0745 -0.37023,-0.0969 z"
           style="fill:url(#linearGradient47)"
           id="path1-75-9" /><path
           d="m 32.609609,26.09443 v -0.3651 l 0.44072,-0.45958 c 1.84887,-1.92804 2.44208,-4.00966 1.75442,-6.1564 -0.32511,-1.01492 -0.90232,-1.8962 -1.88449,-2.87726 -0.95828,-0.95717 -1.83587,-1.5674 -3.28848,-2.28664 -2.57428,-1.27461 -5.08402,-1.91044 -8.50467,-2.15462 -0.63373,-0.0452 -2.68457,-0.0442 -3.31134,0.002 l -0.47645,0.0349 0.33351,-0.30682 0.33352,-0.30683 0.40498,-0.0346 c 0.65224,-0.0558 2.97979,0.0128 3.95581,0.11656 1.55196,0.16495 2.74145,0.39636 4.19271,0.81567 4.94613,1.42908 8.23643,4.13623 8.98994,7.39664 0.10202,0.44145 0.12427,0.65777 0.12619,1.22681 0.003,0.81195 -0.0644,1.27633 -0.27936,1.93324 -0.27761,0.84822 -0.76427,1.68834 -1.46069,2.52159 -0.37539,0.44914 -1.05406,1.12024 -1.22585,1.21218 -0.0981,0.0525 -0.10047,0.0453 -0.10047,-0.31134 z"
           style="fill:url(#linearGradient49)"
           id="path1-6-9" /><path
           d="m 28.283199,17.86484 c -0.56761,-1.13533 -1.15975,-2.16511 -1.77468,-3.08633 -0.18081,-0.27086 -0.31574,-0.50548 -0.29985,-0.52137 0.0624,-0.0624 0.76477,0.18366 0.86293,0.30224 0.17632,0.21298 0.95104,1.50571 1.35011,2.25283 l 0.39058,0.73125 -0.0787,0.38841 c -0.0433,0.21363 -0.0956,0.41931 -0.11637,0.45707 -0.0262,0.0477 -0.12811,-0.11217 -0.33406,-0.5241 z"
           style="fill:url(#linearGradient43)"
           id="path1-5-8" /><path
           d="m 18.345359,30.50131 c -0.56594,-0.0168 -0.54451,-0.008 -0.96254,-0.38575 l -0.2819,-0.2546 0.64321,0.0366 c 1.80392,0.1028 4.23354,-0.0171 5.91362,-0.29179 1.81437,-0.29666 3.77543,-0.84468 5.01867,-1.40248 0.17913,-0.0804 0.33673,-0.1351 0.35022,-0.12161 0.0135,0.0135 0.005,0.16883 -0.0188,0.3452 l -0.0433,0.32068 -0.37914,0.15833 c -0.84438,0.3526 -2.29663,0.79187 -3.41541,1.03307 -2.22718,0.48016 -4.17725,0.64083 -6.82467,0.5623 z"
           style="fill:url(#linearGradient51)"
           id="path1-4-0" /><path
           d="m 23.207669,35.57185 c -0.67453,-0.10906 -1.75379,-0.40499 -1.81027,-0.49638 -0.0129,-0.0208 0.0981,-0.1185 0.24664,-0.2171 l 0.27001,-0.17928 0.54963,0.12944 c 1.52905,0.36011 2.77093,0.3364 3.94994,-0.0754 2.27498,-0.79461 3.69313,-2.90169 4.08328,-6.06688 0.0751,-0.60906 0.10288,-2.25818 0.047,-2.78869 -0.0152,-0.14413 -0.06,-0.54077 -0.0996,-0.88144 l -0.0721,-0.61938 0.1911,-0.42818 c 0.1051,-0.23549 0.20958,-0.43433 0.23218,-0.44187 0.04,-0.0133 0.1899,0.84017 0.30753,1.75148 0.0951,0.73649 0.0783,2.99301 -0.0278,3.74015 -0.50451,3.55334 -2.37452,5.88096 -5.24833,6.53268 -0.47613,0.10797 -2.05205,0.13256 -2.61925,0.0409 z"
           style="fill:url(#linearGradient53);fill-opacity:1"
           id="path1-95-6" /><path
           d="m 26.513719,26.94703 c 1.61943,-2.43766 2.83194,-5.13295 3.43475,-7.63515 0.20942,-0.86926 0.37374,-1.7885 0.31311,-1.75162 -0.0288,0.0175 -0.21309,0.14547 -0.40945,0.28428 -0.42149,0.29798 -0.48856,0.31196 -0.46788,0.0975 0.0131,-0.13578 0.0824,-0.2057 0.56285,-0.56782 0.30135,-0.22713 0.60562,-0.44737 0.67615,-0.48941 l 0.12824,-0.0764 0.45843,0.64197 c 0.40884,0.57254 0.45681,0.66115 0.44351,0.81925 -0.008,0.0975 -0.0364,0.18348 -0.0626,0.19106 -0.0262,0.008 -0.18701,-0.1868 -0.35734,-0.43198 -0.17033,-0.24517 -0.31457,-0.44138 -0.32053,-0.43602 -0.006,0.005 -0.065,0.30282 -0.13112,0.66103 -0.22898,1.23981 -0.6406,2.68935 -1.0986,3.86874 -0.55389,1.42635 -1.53741,3.35208 -2.3652,4.63108 l -0.28336,0.43781 -0.3664,0.12202 c -0.20152,0.0671 -0.39174,0.12202 -0.42271,0.12202 -0.031,0 0.0897,-0.21976 0.26812,-0.48836 z"
           style="fill:url(#linearGradient41)"
           id="path1-73-9" /><path
           d="m 9.945589,29.57116 c -0.0768,-0.0925 -0.0103,-0.13447 0.50694,-0.32049 0.2424,-0.0872 0.44063,-0.17007 0.44052,-0.18421 -1.1e-4,-0.0142 -0.16105,-0.0897 -0.35765,-0.16785 -0.37995,-0.15107 -0.38045,-0.15169 -0.42932,-0.53682 -0.0246,-0.19393 -0.0174,-0.24959 0.0323,-0.24772 0.0352,10e-4 0.26771,0.0849 0.51666,0.18583 0.24894,0.10087 0.45936,0.17702 0.4676,0.16921 0.008,-0.008 -0.0507,-0.20033 -0.13102,-0.42784 -0.16869,-0.47792 -0.17684,-0.54927 -0.0626,-0.54827 0.14994,0.001 0.20101,0.071 0.38551,0.52646 0.34598,0.85396 0.41701,1.09334 0.33904,1.14263 -0.14249,0.0901 -1.3616,0.47421 -1.50492,0.47421 -0.0819,0 -0.17329,-0.0293 -0.20302,-0.0651 z"
           style="fill:url(#linearGradient59)"
           id="path1-44-5" /><path
           d="m 14.027949,35.56546 c -0.95511,-0.11645 -1.54983,-0.28497 -2.26623,-0.64213 -1.19693,-0.59673 -2.2046,-1.62351 -2.83155,-2.88523 -1.03474,-2.08217 -1.2868,-4.76454 -0.75839,-8.06941 0.0314,-0.19653 0.0716,-0.38525 0.0892,-0.41937 0.0194,-0.0375 0.10928,0.10739 0.2271,0.36598 l 0.19501,0.42801 -0.0654,0.46781 c -0.17293,1.23608 -0.1999,2.74753 -0.0683,3.8268 0.24695,2.02562 0.99737,3.72935 2.11528,4.80259 0.70337,0.67527 1.46273,1.09571 2.44717,1.35495 0.53384,0.14058 0.60226,0.1473 1.53546,0.15069 1.06144,0.004 1.37231,-0.037 2.3387,-0.30769 1.33486,-0.37385 2.70264,-1.06149 4.21128,-2.1172 0.45481,-0.31827 0.61423,-0.40433 0.78615,-0.42441 0.1186,-0.0139 0.33078,-0.039 0.4715,-0.0559 0.16726,-0.0201 0.24976,-0.0138 0.23823,0.0182 -0.0316,0.0877 -1.00614,0.86828 -1.49464,1.19718 -1.75149,1.17927 -3.45518,1.91746 -5.07421,2.1986 -0.52292,0.0908 -1.73428,0.15466 -2.09639,0.1105 z"
           style="fill:url(#linearGradient57)"
           id="path1-50-9" /><path
           d="m 5.814579,25.92354 c -2.10276,-2.07815 -2.831905,-4.41703 -2.13537,-6.84957 0.23228,-0.81117 0.80808,-1.84172 1.47715,-2.64374 0.79206,-0.94945 2.02999,-1.94404 3.33494,-2.67942 0.92871,-0.52334 3.1684,-1.47432 3.1684,-1.34532 0,0.0173 -0.12727,0.20782 -0.28282,0.42329 -0.27135,0.37588 -0.29694,0.39723 -0.63129,0.52665 -2.15853,0.83546 -4.15986,2.21863 -5.3323,3.6852 -1.25188,1.56593 -1.69415,3.42541 -1.23163,5.17824 0.28801,1.09148 0.85668,2.05128 1.79433,3.02851 l 0.43864,0.45716 -0.0286,0.34177 c -0.0158,0.18797 -0.045,0.34177 -0.065,0.34177 -0.02,0 -0.24787,-0.20904 -0.50639,-0.46454 z"
           style="fill:url(#linearGradient61)"
           id="path1-86-6" /><path
           d="m 10.591409,18.19955 c -0.0144,-0.062 -0.0575,-0.25174 -0.0959,-0.42154 l -0.0698,-0.30871 0.34837,-0.66801 c 1.58362,-3.03659 3.73009,-5.70152 6.16803,-7.65785 0.25315,-0.20314 0.4844,-0.3698 0.5139,-0.37035 0.0295,-5.5e-4 0.17759,0.0538 0.3291,0.12082 0.31657,0.14 0.34023,0.0902 -0.26361,0.5545 -0.97728,0.75139 -2.11507,1.83812 -3.04578,2.9091 -1.20532,1.38698 -2.49002,3.31297 -3.41625,5.12155 -0.22484,0.43904 -0.41625,0.80614 -0.42535,0.81578 -0.009,0.01 -0.0283,-0.0332 -0.0427,-0.0953 z"
           style="fill:url(#linearGradient63);fill-opacity:1"
           id="path1-756-2" /><path
           d="m 16.846539,32.37398 c -2.24968,-1.79589 -4.28573,-4.24445 -5.8494,-7.0345 -1.42833,-2.54857 -2.32668,-4.97088 -2.78856,-7.51915 -0.0641,-0.35377 -0.13037,-0.76126 -0.14725,-0.90553 l -0.0307,-0.26232 0.24421,-0.18232 c 0.13433,-0.10028 0.25021,-0.1752 0.25749,-0.16649 0.007,0.009 0.0492,0.27312 0.0933,0.58758 0.57593,4.11297 2.70756,8.6918 5.66483,12.16807 0.89507,1.05216 2.42603,2.49715 3.35668,3.1682 0.13758,0.0992 0.25014,0.19705 0.25014,0.21744 0,0.0311 -0.51766,0.28832 -0.58024,0.28832 -0.0112,0 -0.22294,-0.16168 -0.4705,-0.3593 z"
           style="fill:url(#linearGradient55)"
           id="path1-17-6" /><path
           d="m 16.932599,27.06394 c -0.47169,-0.11076 -0.94589,-0.45901 -1.10477,-0.81134 -0.0796,-0.17653 -0.0936,-0.18564 -0.23145,-0.15019 -0.0807,0.0207 -0.36112,0.0367 -0.62316,0.0353 -0.42657,-0.002 -0.50528,-0.0167 -0.75173,-0.1394 -0.32877,-0.16363 -0.66726,-0.51032 -0.80313,-0.8226 -0.0951,-0.2186 -0.14582,-0.68549 -0.0815,-0.75018 0.0172,-0.0173 0.11368,-0.009 0.2144,0.0194 0.28781,0.0799 0.85274,0.0658 0.94206,-0.0235 0.0412,-0.0412 0.0749,-0.0932 0.0749,-0.11571 0,-0.12145 -0.1636,-0.19058 -0.45102,-0.19058 -0.6396,0 -1.26798,-0.32894 -1.4933,-0.7817 -0.13529,-0.27186 -0.15434,-0.69698 -0.0449,-1.00232 0.0857,-0.23924 0.14413,-0.25655 0.26985,-0.08 0.28084,0.3944 1.11771,0.89991 1.90997,1.1537 0.46261,0.1482 0.66057,0.28076 0.7904,0.52927 0.19483,0.37295 -0.0568,0.76716 -0.62364,0.97679 -0.19606,0.0725 -0.24087,0.1108 -0.25314,0.21626 -0.012,0.10309 0.008,0.13403 0.10491,0.15822 0.14966,0.0376 0.52113,-0.0829 0.76347,-0.24757 0.16322,-0.11091 0.21459,-0.1217 0.45805,-0.0963 0.64678,0.0676 1.11106,0.37344 1.30669,0.86078 0.13026,0.32448 0.22031,0.39692 0.39468,0.31746 0.10694,-0.0487 0.11715,-0.0756 0.0941,-0.24767 -0.0238,-0.17776 -0.19036,-0.46566 -0.47395,-0.81944 -0.0893,-0.11141 -0.11069,-0.2054 -0.1246,-0.54792 -0.0185,-0.45628 -0.0531,-0.53255 -0.24156,-0.53255 -0.19644,0 -0.24192,0.0824 -0.24192,0.43834 0,0.17819 -0.008,0.32399 -0.0167,0.32399 -0.009,0 -0.0789,-0.0204 -0.15485,-0.0453 -0.076,-0.0249 -0.22389,-0.0672 -0.32871,-0.0939 l -0.19058,-0.0486 v -0.3468 c 0,-0.3125 -0.0151,-0.36847 -0.15215,-0.56586 -0.16903,-0.24337 -0.44181,-0.40028 -0.98138,-0.56452 -0.46293,-0.14091 -0.95743,-0.3967 -1.35585,-0.70136 -0.94572,-0.72316 -1.30386,-1.72461 -0.93663,-2.61905 0.0921,-0.22429 0.34969,-0.63671 0.39769,-0.63671 0.0192,0 0.0695,0.12438 0.11171,0.2764 0.17551,0.63126 0.82118,1.06703 1.69694,1.14527 l 0.35262,0.0315 0.0902,0.30969 c 0.0496,0.17033 0.10198,0.34542 0.11643,0.38908 0.0217,0.0656 -0.0209,0.0853 -0.24406,0.11317 -0.33754,0.0422 -0.63067,0.004 -1.01255,-0.1327 l -0.29712,-0.10617 -0.0978,0.0978 c -0.14166,0.14166 -0.0777,0.23966 0.23193,0.35554 0.53163,0.19894 1.15174,0.23533 1.5636,0.0917 0.12094,-0.0422 0.1818,-0.0308 0.38653,0.072 0.13365,0.0671 0.36263,0.14608 0.50885,0.17544 0.20797,0.0418 0.27079,0.0753 0.28853,0.15386 0.0125,0.0553 0.0455,0.20767 0.0734,0.33869 0.11285,0.53029 0.51243,0.95158 1.22856,1.29528 0.86253,0.41398 1.24004,0.92924 1.25175,1.70852 0.006,0.41802 -0.12716,0.75542 -0.42779,1.08156 -0.438,0.47517 -1.22865,0.70821 -1.88216,0.55477 z m 3.55525,-0.48378 -0.67924,-0.39237 0.0122,-1.33407 0.0122,-1.33407 0.77424,-0.445 0.77423,-0.44501 v -0.75479 -0.75479 l 0.13102,-0.0916 c 0.0721,-0.0504 0.43655,-0.26843 0.80997,-0.48456 l 0.67895,-0.39295 v -1.326 c 0,-1.29888 0.002,-1.32663 0.0986,-1.35727 0.14825,-0.0471 0.2822,-0.30306 0.28241,-0.53973 1.4e-4,-0.17159 -0.0272,-0.23466 -0.15901,-0.36645 -0.18467,-0.18467 -0.3434,-0.23602 -0.58778,-0.19018 -0.50312,0.0944 -0.63391,0.7647 -0.21032,1.07787 l 0.14731,0.10892 v 1.20044 1.20044 l -0.55414,0.31525 c -0.30478,0.17338 -0.57278,0.31524 -0.59557,0.31524 -0.0228,0 -0.0406,-0.87202 -0.0396,-1.94154 l 0.002,-1.94155 0.15302,-0.0962 c 0.29533,-0.18574 0.33015,-0.6722 0.0659,-0.92047 -0.26822,-0.25198 -0.63047,-0.22406 -0.88722,0.0684 -0.23765,0.27066 -0.16785,0.71093 0.14169,0.89379 l 0.14254,0.0842 -0.0123,2.8372 -0.0123,2.8372 -0.4288,0.24718 c -0.23585,0.13595 -0.55209,0.31742 -0.70277,0.40326 l -0.27396,0.15607 v -0.56928 -0.56929 l 0.1474,-0.0295 c 0.0811,-0.0162 0.22044,-0.10251 0.3097,-0.19177 0.14344,-0.14344 0.16229,-0.19136 0.16229,-0.41266 0,-0.23011 -0.0154,-0.26503 -0.19058,-0.43166 l -0.19058,-0.1813 V 17.9788 15.12603 l 0.65942,-0.38901 c 0.36268,-0.21397 0.68401,-0.38902 0.71408,-0.38902 0.0301,0 0.51053,0.26508 1.06771,0.58906 0.55719,0.32399 1.23819,0.71827 1.51334,0.87619 l 0.50027,0.28711 0.0123,2.66419 0.0123,2.66419 -0.58072,0.3308 c -0.3194,0.18194 -0.59911,0.33822 -0.62158,0.34729 -0.0225,0.009 -0.11718,-0.0197 -0.21045,-0.064 -0.49793,-0.23628 -1.01075,0.30576 -0.779,0.82339 0.24188,0.54026 1.06039,0.40098 1.13979,-0.19394 l 0.0268,-0.20078 0.70277,-0.40375 0.70277,-0.40374 v -1.48734 c 0,-1.03368 -0.016,-1.49726 -0.0526,-1.51986 -0.09,-0.0556 -0.23117,-0.41754 -0.23117,-0.5925 0,-0.36526 0.31854,-0.78307 0.69063,-0.90587 0.24005,-0.0792 0.57338,-0.0264 0.79272,0.12558 0.21196,0.14688 0.42082,0.53428 0.41932,0.77774 -0.001,0.19205 -0.1354,0.51817 -0.25345,0.61586 -0.071,0.0588 -0.0792,0.24937 -0.0806,1.88199 l -0.002,1.8166 -2.1207,1.20747 -2.12069,1.20748 -0.17093,-0.0811 c -0.24392,-0.11575 -0.47789,-0.0673 -0.66769,0.13823 -0.28012,0.30334 -0.23889,0.73311 0.0895,0.93335 0.40955,0.2497 0.93841,-0.0486 0.94544,-0.53326 10e-4,-0.0898 0.12571,-0.17926 0.71435,-0.51371 0.61738,-0.35079 0.71975,-0.42587 0.76484,-0.56105 0.20788,-0.62308 1.02989,-0.82828 1.51296,-0.37767 0.32506,0.30321 0.38642,0.84117 0.13865,1.21559 -0.18126,0.2739 -0.57543,0.46061 -0.88554,0.41947 -0.22804,-0.0302 -0.23436,-0.0273 -1.55951,0.73772 -0.7318,0.42245 -1.35198,0.77614 -1.37818,0.78598 -0.0262,0.01 -0.35331,-0.15868 -0.72689,-0.37449 z m 3.96513,-1.6274 c 0.1676,-0.07 0.31133,-0.28072 0.31133,-0.45638 0,-0.24078 -0.27045,-0.5241 -0.50028,-0.5241 -0.23428,0 -0.5005,0.28408 -0.50009,0.53364 2.9e-4,0.1813 0.17169,0.41125 0.34343,0.46078 0.0862,0.0248 0.16271,0.0471 0.1701,0.0495 0.007,0.002 0.0864,-0.0262 0.17551,-0.0634 z m 1.09237,-6.43663 c 0.33125,-0.15719 0.39554,-0.52704 0.13828,-0.79556 -0.104,-0.10855 -0.16821,-0.13275 -0.35226,-0.13275 -0.19284,0 -0.24274,0.021 -0.34842,0.14659 -0.17563,0.20872 -0.17225,0.5047 0.008,0.67234 0.21065,0.19628 0.32436,0.2187 0.55473,0.10938 z m -4.46164,7.11957 c -0.0459,-0.0267 -0.11664,-0.11289 -0.1573,-0.19152 -0.17481,-0.33805 0.19246,-0.68306 0.57207,-0.53739 0.0942,0.0361 0.21653,0.26244 0.21653,0.40051 0,0.2524 -0.40239,0.46173 -0.6313,0.3284 z m -2.82444,-2.20728 c -0.70348,-0.33253 -0.9698,-0.63729 -1.07153,-1.2262 -0.0691,-0.40031 -0.20259,-0.54298 -0.57268,-0.61231 -0.65821,-0.12331 -0.92717,-0.42744 -0.92717,-1.04843 0,-0.29619 0.0232,-0.40454 0.13543,-0.63313 0.1663,-0.33867 0.14488,-0.42625 -0.0993,-0.40606 -0.16485,0.0136 -0.18928,0.0356 -0.30793,0.27686 -0.0709,0.14413 -0.14107,0.30263 -0.15596,0.35222 -0.0242,0.0806 -0.0602,0.0871 -0.34033,0.0609 -0.53878,-0.0503 -1.06052,-0.36185 -1.25963,-0.75215 -0.10971,-0.21505 -0.12092,-0.58208 -0.0235,-0.76888 0.0614,-0.11767 0.0587,-0.15311 -0.0258,-0.34416 -0.22089,-0.49936 -0.15425,-1.06798 0.18147,-1.54852 0.16207,-0.23198 0.53599,-0.57281 0.62843,-0.57281 0.0197,0 0.0612,0.11011 0.0922,0.2447 0.0963,0.41727 0.32946,0.83707 0.65872,1.1861 0.33531,0.35545 0.43646,0.41296 0.58579,0.33304 0.16203,-0.0867 0.11126,-0.21765 -0.2007,-0.51751 -0.7851,-0.75464 -0.94513,-1.64912 -0.38552,-2.15482 0.29942,-0.27058 0.71219,-0.4328 0.99546,-0.39123 0.1223,0.018 0.16036,-0.007 0.2902,-0.19134 0.42324,-0.60046 1.54454,-0.68829 2.13636,-0.16735 0.54829,0.48262 0.6097,1.24124 0.14503,1.79172 l -0.13264,0.15713 0.0985,0.10492 c 0.16613,0.17696 0.29282,0.51547 0.29394,0.78539 0.001,0.30494 -0.0959,0.55341 -0.29799,0.76224 -0.12719,0.13142 -0.1421,0.16934 -0.0936,0.23823 0.32295,0.45903 0.40618,0.72832 0.33844,1.09506 -0.10933,0.59193 -0.64216,0.82212 -1.22177,0.52781 -0.33993,-0.17261 -0.43933,-0.40252 -0.43885,-1.01503 2.1e-4,-0.26305 0.0324,-0.73474 0.0715,-1.0482 0.0391,-0.31346 0.0711,-0.72538 0.0711,-0.91538 0,-0.6661 -0.28982,-1.11923 -0.81577,-1.27542 -0.32252,-0.0958 -0.3889,-0.0935 -0.52492,0.0181 -0.16241,0.13328 -0.073,0.25552 0.21727,0.29724 0.29862,0.0429 0.42431,0.13348 0.55235,0.39798 0.12959,0.2677 0.13468,0.64479 0.0216,1.59921 -0.11647,0.98288 -0.11168,1.40377 0.019,1.67378 0.22531,0.46543 0.65595,0.70977 1.30868,0.74255 l 0.42087,0.0211 -0.0326,0.28125 c -0.0312,0.26852 -0.0249,0.29251 0.13765,0.52999 0.34693,0.50675 0.42679,0.97902 0.2739,1.61972 -0.0994,0.41647 -0.21527,0.70456 -0.28089,0.69828 -0.019,-0.002 -0.22813,-0.0948 -0.46478,-0.20669 z m 4.09668,-0.53546 c -0.24937,-0.26908 -0.0745,-0.6839 0.28826,-0.6839 0.20157,0 0.40487,0.1845 0.40487,0.36743 0,0.39154 -0.43815,0.59159 -0.69313,0.31647 z m -2.78497,-1.44622 c 0,-0.34195 0.009,-0.38117 0.09,-0.38117 0.17767,0 0.31281,0.16467 0.31281,0.38117 0,0.21649 -0.13514,0.38116 -0.31281,0.38116 -0.0807,0 -0.09,-0.0392 -0.09,-0.38116 z m 2.90982,-4.22303 c -0.33011,-0.41967 0.19599,-0.92112 0.57195,-0.54516 0.1552,0.15521 0.17294,0.27678 0.0696,0.47671 -0.0797,0.1542 -0.15837,0.19399 -0.38337,0.19399 -0.11545,0 -0.18662,-0.0346 -0.25815,-0.12554 z m -1.59534,-0.83102 c -0.0678,-0.0806 -0.12335,-0.18682 -0.12335,-0.23599 0,-0.3627 0.41816,-0.55493 0.69296,-0.31855 0.27962,0.24052 0.0915,0.70113 -0.2864,0.70113 -0.12002,0 -0.1906,-0.0365 -0.28321,-0.14659 z"
           style="fill:url(#radialGradient39)"
           id="path1-26" /></g></g></g></svg>
