<?xml version="1.0" encoding="UTF-8" standalone="no"?>
<!-- Created with Inkscape (http://www.inkscape.org/) -->

<svg
   width="31.910118mm"
   height="29.257189mm"
   viewBox="0 0 31.910118 29.257189"
   version="1.1"
   id="svg1"
   inkscape:version="1.3.2 (091e20e, 2023-11-25, custom)"
   sodipodi:docname="logos.svg"
   xml:space="preserve"
   xmlns:inkscape="http://www.inkscape.org/namespaces/inkscape"
   xmlns:sodipodi="http://sodipodi.sourceforge.net/DTD/sodipodi-0.dtd"
   xmlns:xlink="http://www.w3.org/1999/xlink"
   xmlns="http://www.w3.org/2000/svg"
   xmlns:svg="http://www.w3.org/2000/svg"><sodipodi:namedview
     id="namedview1"
     pagecolor="#ffffff"
     bordercolor="#000000"
     borderopacity="0.25"
     inkscape:showpageshadow="2"
     inkscape:pageopacity="0.0"
     inkscape:pagecheckerboard="0"
     inkscape:deskcolor="#d1d1d1"
     inkscape:document-units="mm"
     inkscape:zoom="0.64"
     inkscape:cx="227.34375"
     inkscape:cy="614.84375"
     inkscape:window-width="1920"
     inkscape:window-height="1017"
     inkscape:window-x="-8"
     inkscape:window-y="-8"
     inkscape:window-maximized="1"
     inkscape:current-layer="layer1" /><defs
     id="defs1"><linearGradient
       id="linearGradient62"
       inkscape:collect="always"><stop
         style="stop-color:#93cf62;stop-opacity:0.25;"
         offset="0"
         id="stop62" /><stop
         style="stop-color:#93cf62;stop-opacity:0.25;"
         offset="1"
         id="stop63" /></linearGradient><linearGradient
       id="linearGradient60"
       inkscape:collect="always"><stop
         style="stop-color:#93cf62;stop-opacity:1;"
         offset="0"
         id="stop60" /><stop
         style="stop-color:#93cf62;stop-opacity:0.25;"
         offset="1"
         id="stop61" /></linearGradient><linearGradient
       id="linearGradient58"
       inkscape:collect="always"><stop
         style="stop-color:#93cf62;stop-opacity:0.25;"
         offset="0.00139276"
         id="stop58" /><stop
         style="stop-color:#93cf62;stop-opacity:1;"
         offset="1"
         id="stop59" /></linearGradient><linearGradient
       id="linearGradient56"
       inkscape:collect="always"><stop
         style="stop-color:#93cf62;stop-opacity:0.25;"
         offset="0"
         id="stop56" /><stop
         style="stop-color:#93cf62;stop-opacity:1;"
         offset="1"
         id="stop57" /></linearGradient><linearGradient
       id="linearGradient54"
       inkscape:collect="always"><stop
         style="stop-color:#93cf62;stop-opacity:0.25;"
         offset="0"
         id="stop54" /><stop
         style="stop-color:#93cf62;stop-opacity:1;"
         offset="1"
         id="stop55" /></linearGradient><linearGradient
       id="linearGradient52"
       inkscape:collect="always"><stop
         style="stop-color:#93cf62;stop-opacity:0.25;"
         offset="0"
         id="stop52" /><stop
         style="stop-color:#93cf62;stop-opacity:1;"
         offset="1"
         id="stop53" /></linearGradient><linearGradient
       id="linearGradient50"
       inkscape:collect="always"><stop
         style="stop-color:#93cf62;stop-opacity:0.25;"
         offset="0"
         id="stop50" /><stop
         style="stop-color:#93cf62;stop-opacity:1;"
         offset="1"
         id="stop51" /></linearGradient><linearGradient
       id="linearGradient48"
       inkscape:collect="always"><stop
         style="stop-color:#93cf62;stop-opacity:0.25;"
         offset="0.15598886"
         id="stop48" /><stop
         style="stop-color:#93cf62;stop-opacity:1;"
         offset="1"
         id="stop49" /></linearGradient><linearGradient
       id="linearGradient46"
       inkscape:collect="always"><stop
         style="stop-color:#93cf62;stop-opacity:0.25;"
         offset="0.09470752"
         id="stop46" /><stop
         style="stop-color:#93cf62;stop-opacity:1;"
         offset="1"
         id="stop47" /></linearGradient><linearGradient
       id="linearGradient44"
       inkscape:collect="always"><stop
         style="stop-color:#93cf62;stop-opacity:0.25;"
         offset="0"
         id="stop44" /><stop
         style="stop-color:#93cf62;stop-opacity:1;"
         offset="1"
         id="stop45" /></linearGradient><linearGradient
       id="linearGradient42"
       inkscape:collect="always"><stop
         style="stop-color:#93cf62;stop-opacity:0.25;"
         offset="0.0988858"
         id="stop42" /><stop
         style="stop-color:#93cf62;stop-opacity:1;"
         offset="1"
         id="stop43" /></linearGradient><linearGradient
       id="linearGradient39"
       inkscape:collect="always"><stop
         style="stop-color:#93cf62;stop-opacity:0.25;"
         offset="0"
         id="stop40" /><stop
         style="stop-color:#93cf62;stop-opacity:1;"
         offset="1"
         id="stop41" /></linearGradient><linearGradient
       id="linearGradient38"
       inkscape:collect="always"><stop
         style="stop-color:#ecc3f0;stop-opacity:1;"
         offset="0"
         id="stop39" /><stop
         style="stop-color:#c253ff;stop-opacity:1;"
         offset="0.83704734"
         id="stop38" /></linearGradient><radialGradient
       inkscape:collect="always"
       xlink:href="#linearGradient38"
       id="radialGradient39"
       cx="116.38701"
       cy="174.28369"
       fx="116.38701"
       fy="174.28369"
       r="6.9171772"
       gradientTransform="matrix(0.98937341,0,0,0.92295304,-94.990464,-139.97612)"
       gradientUnits="userSpaceOnUse" /><linearGradient
       inkscape:collect="always"
       xlink:href="#linearGradient39"
       id="linearGradient41"
       x1="123.25684"
       y1="175.74773"
       x2="128.67143"
       y2="175.74773"
       gradientUnits="userSpaceOnUse"
       gradientTransform="matrix(0.98937341,0,0,0.98937341,-94.990464,-151.5521)" /><linearGradient
       inkscape:collect="always"
       xlink:href="#linearGradient42"
       id="linearGradient43"
       x1="123.22353"
       y1="169.94797"
       x2="125.82842"
       y2="169.94797"
       gradientUnits="userSpaceOnUse"
       gradientTransform="matrix(0.98937341,0,0,0.98937341,-94.990464,-151.5521)" /><linearGradient
       inkscape:collect="always"
       xlink:href="#linearGradient44"
       id="linearGradient45"
       x1="104.63871"
       y1="162.70557"
       x2="119.91307"
       y2="162.70557"
       gradientUnits="userSpaceOnUse"
       gradientTransform="matrix(0.98937341,0,0,0.98937341,-94.990464,-151.5521)" /><linearGradient
       inkscape:collect="always"
       xlink:href="#linearGradient46"
       id="linearGradient47"
       x1="118.40793"
       y1="162.74889"
       x2="128.0322"
       y2="162.74889"
       gradientUnits="userSpaceOnUse"
       gradientTransform="matrix(0.98937341,0,0,0.98937341,-94.990464,-151.5521)" /><linearGradient
       inkscape:collect="always"
       xlink:href="#linearGradient48"
       id="linearGradient49"
       x1="114.35545"
       y1="172.42258"
       x2="132.69221"
       y2="172.42258"
       gradientUnits="userSpaceOnUse"
       gradientTransform="matrix(0.98937341,0,0,0.98937341,-94.990464,-151.5521)" /><linearGradient
       inkscape:collect="always"
       xlink:href="#linearGradient50"
       id="linearGradient51"
       x1="114.11705"
       y1="182.92578"
       x2="126.04919"
       y2="182.92578"
       gradientUnits="userSpaceOnUse"
       gradientTransform="matrix(0.98937341,0,0,0.98937341,-94.990464,-151.5521)" /><linearGradient
       inkscape:collect="always"
       xlink:href="#linearGradient52"
       id="linearGradient53"
       x1="118.41251"
       y1="183.19325"
       x2="128.18161"
       y2="183.19325"
       gradientUnits="userSpaceOnUse"
       gradientTransform="matrix(0.98937341,0,0,0.98937341,-94.990464,-151.5521)" /><linearGradient
       inkscape:collect="always"
       xlink:href="#linearGradient54"
       id="linearGradient55"
       x1="105.04676"
       y1="178.14397"
       x2="114.91341"
       y2="178.14397"
       gradientUnits="userSpaceOnUse"
       gradientTransform="matrix(0.98937341,0,0,0.98937341,-94.990464,-151.5521)" /><linearGradient
       inkscape:collect="always"
       xlink:href="#linearGradient56"
       id="linearGradient57"
       x1="104.91968"
       y1="183.18744"
       x2="119.71035"
       y2="183.18744"
       gradientUnits="userSpaceOnUse"
       gradientTransform="matrix(0.98937341,0,0,0.98937341,-94.990464,-151.5521)" /><linearGradient
       inkscape:collect="always"
       xlink:href="#linearGradient58"
       id="linearGradient59"
       x1="106.93511"
       y1="182.19048"
       x2="108.69835"
       y2="182.19048"
       gradientUnits="userSpaceOnUse"
       gradientTransform="matrix(0.98937341,0,0,0.98937341,-94.990464,-151.5521)" /><linearGradient
       inkscape:collect="always"
       xlink:href="#linearGradient60"
       id="linearGradient61"
       x1="100.43935"
       y1="173.01666"
       x2="108.67583"
       y2="173.01666"
       gradientUnits="userSpaceOnUse"
       gradientTransform="matrix(0.98937341,0,0,0.98937341,-94.990464,-151.5521)" /><linearGradient
       inkscape:collect="always"
       xlink:href="#linearGradient62"
       id="linearGradient63"
       x1="107.44184"
       y1="167.16051"
       x2="115.02055"
       y2="167.16051"
       gradientUnits="userSpaceOnUse"
       gradientTransform="matrix(0.98937341,0,0,0.98937341,-94.990464,-151.5521)" /></defs><g
     inkscape:label="Calque 1"
     inkscape:groupmode="layer"
     id="layer1"
     transform="translate(-4.3815576,-6.4337185)"><g
       id="g20"><path
         d="m 33.257796,26.258345 v -0.361221 l 0.436037,-0.454696 c 1.829222,-1.907551 2.416129,-3.967051 1.735776,-6.090978 -0.321655,-1.004135 -0.892731,-1.87605 -1.864464,-2.846685 -0.948097,-0.946998 -1.816361,-1.550744 -3.253535,-2.262341 -2.546924,-1.261065 -5.029994,-1.890138 -8.414294,-2.131723 -0.626996,-0.04472 -2.656042,-0.04373 -3.276152,0.002 l -0.471387,0.03453 0.329966,-0.30356 0.329976,-0.303569 0.400676,-0.03423 c 0.645309,-0.05521 2.948125,0.01266 3.913773,0.115322 1.535468,0.163197 2.712318,0.392148 4.148156,0.807002 4.89357,1.413894 8.148905,4.092276 8.894408,7.318039 0.100936,0.436759 0.122949,0.65078 0.124849,1.213773 0.003,0.803322 -0.06372,1.262767 -0.276391,1.912696 -0.27466,0.839206 -0.756149,1.670399 -1.445168,2.494794 -0.371401,0.444367 -1.042859,1.108336 -1.212824,1.199299 -0.09706,0.05194 -0.0994,0.04482 -0.0994,-0.308032 z"
         style="fill:url(#linearGradient49);stroke-width:0.989373"
         id="path1-6-9" /><path
         d="m 19.145126,30.618395 c -0.559926,-0.01662 -0.538723,-0.0079 -0.952311,-0.381651 l -0.278905,-0.251895 0.636375,0.03621 c 1.784751,0.101708 4.188552,-0.01692 5.850779,-0.288689 1.795089,-0.293507 3.73531,-0.835704 4.965338,-1.387576 0.177227,-0.07955 0.333152,-0.133665 0.346499,-0.120318 0.01336,0.01336 0.0049,0.167036 -0.0186,0.341532 l -0.04284,0.317272 -0.375111,0.156647 c -0.835408,0.348853 -2.272225,0.783456 -3.379116,1.022092 -2.203513,0.475058 -4.13286,0.634021 -6.752147,0.556325 z"
         style="fill:url(#linearGradient51);stroke-width:0.989373"
         id="path1-4-0" /><path
         d="m 10.834617,29.698129 c -0.07598,-0.09152 -0.01019,-0.133041 0.501553,-0.317084 0.239824,-0.08627 0.435948,-0.168263 0.435839,-0.182253 -1.09e-4,-0.01405 -0.159339,-0.08875 -0.353849,-0.166066 -0.375913,-0.149465 -0.376408,-0.150078 -0.424758,-0.531116 -0.02434,-0.191869 -0.01722,-0.246937 0.03196,-0.245087 0.03483,9.89e-4 0.264866,0.084 0.51117,0.183855 0.246295,0.0998 0.454479,0.175139 0.462631,0.167412 0.0079,-0.0079 -0.05016,-0.198201 -0.129628,-0.423294 -0.166897,-0.472841 -0.17496,-0.543433 -0.06193,-0.542443 0.148346,9.89e-4 0.198874,0.07024 0.381413,0.520865 0.342303,0.844885 0.412579,1.081722 0.335437,1.130488 -0.140976,0.08914 -1.347131,0.469171 -1.488928,0.469171 -0.08103,0 -0.171448,-0.02899 -0.200862,-0.06441 z"
         style="fill:url(#linearGradient59);stroke-width:0.989373"
         id="path1-44-5" /><path
         d="M 6.7475057,26.089271 C 4.6670909,24.033204 3.9456942,21.719179 4.6348274,19.312488 c 0.2298117,-0.80255 0.7994929,-1.822149 1.461453,-2.615646 0.7836431,-0.93936 2.0084181,-1.923381 3.2995009,-2.650947 0.9188407,-0.517778 3.1347307,-1.458653 3.1347307,-1.331024 0,0.01712 -0.125918,0.205612 -0.279815,0.418792 -0.268466,0.371886 -0.293784,0.393009 -0.624581,0.521054 -2.1355923,0.826582 -4.115655,2.195053 -5.2756359,3.646039 -1.2385768,1.549289 -1.676147,3.389009 -1.218542,5.123213 0.2849495,1.079881 0.8475764,2.029482 1.7752624,2.996327 l 0.4339788,0.452302 -0.028296,0.338138 c -0.015632,0.185973 -0.044522,0.338138 -0.064309,0.338138 -0.019788,0 -0.245236,-0.206818 -0.5010088,-0.459603 z"
         style="fill:url(#linearGradient61);stroke-width:0.989373"
         id="path1-86-6" /></g><g
       id="g4"><path
         d="M 31.314894,12.354631 C 31.0499,12.220927 31.014332,12.185794 30.971878,12.015701 30.741968,11.094584 30.329379,10.122278 29.890137,9.466432 29.546221,8.9529076 28.829707,8.2459904 28.311938,7.9093858 27.4124,7.3245672 26.528731,7.0457717 25.450828,7.0066914 24.640799,6.977307 24.073007,7.0362737 23.256586,7.2343561 l -0.576043,0.1397886 -0.26067,-0.173081 c -0.14338,-0.095178 -0.26068,-0.1879216 -0.26068,-0.2060667 0,-0.047193 0.883055,-0.3091792 1.437738,-0.4264595 0.666293,-0.1408769 1.951222,-0.179225 2.593058,-0.077369 1.400785,0.2222627 2.454428,0.753398 3.419374,1.7236765 0.769158,0.773413 1.274055,1.6015086 1.670023,2.739031 0.159516,0.458258 0.401665,1.36021 0.401804,1.496655 7.9e-5,0.08162 -0.03008,0.07371 -0.366296,-0.09587 z"
         style="fill:url(#linearGradient47);stroke-width:0.989373"
         id="path1-75-9" /><path
         d="m 27.226684,27.101884 c 1.602221,-2.411756 2.801847,-5.078404 3.398251,-7.554014 0.207194,-0.860023 0.369768,-1.769494 0.309782,-1.733006 -0.02849,0.01731 -0.210825,0.143924 -0.405098,0.281259 -0.417011,0.294813 -0.483369,0.308645 -0.462908,0.09646 0.01296,-0.134337 0.08152,-0.203514 0.556868,-0.561786 0.298148,-0.224717 0.599185,-0.442616 0.668965,-0.484209 l 0.126877,-0.07559 0.453559,0.635148 c 0.404495,0.566456 0.451956,0.654125 0.438797,0.810545 -0.0079,0.09646 -0.03601,0.18153 -0.06193,0.189029 -0.02592,0.0079 -0.185023,-0.184815 -0.353543,-0.427389 -0.16852,-0.242565 -0.311227,-0.43669 -0.317123,-0.431387 -0.0059,0.0049 -0.06431,0.299602 -0.129727,0.654006 -0.226547,1.226635 -0.633793,2.660771 -1.086926,3.827628 -0.548004,1.411193 -1.521072,3.316459 -2.340066,4.581868 l -0.280349,0.433157 -0.362506,0.120723 c -0.199379,0.06639 -0.387577,0.120724 -0.418218,0.120724 -0.03067,0 0.08875,-0.217425 0.265271,-0.483171 z"
         style="fill:url(#linearGradient41);stroke-width:0.989373"
         id="path1-73-9" /><path
         d="M 14.873596,35.62873 C 13.928635,35.513517 13.340235,35.346788 12.631448,34.993424 11.447237,34.403035 10.450275,33.387166 9.8299876,32.138854 8.8062434,30.07881 8.5568619,27.424945 9.0796567,24.155194 c 0.031066,-0.194442 0.070839,-0.381156 0.088252,-0.414913 0.019194,-0.0371 0.1081187,0.106248 0.2246867,0.36209 l 0.1929377,0.423462 -0.064705,0.462839 c -0.1710923,1.222945 -0.1977757,2.718333 -0.067574,3.786134 0.2443258,2.004095 0.9867709,3.68972 2.0928019,4.751555 0.695895,0.668094 1.447186,1.084066 2.421165,1.340551 0.528167,0.139086 0.59586,0.145735 1.519143,0.149089 1.050161,0.004 1.357727,-0.03661 2.313848,-0.30442 1.320675,-0.369877 2.67392,-1.05021 4.166528,-2.094702 0.449977,-0.314888 0.607703,-0.400033 0.777796,-0.4199 0.11734,-0.01375 0.327265,-0.03858 0.46649,-0.05531 0.165482,-0.01989 0.247105,-0.01365 0.235698,0.01801 -0.03126,0.08677 -0.995448,0.859053 -1.478757,1.184458 -1.732878,1.166738 -3.418463,1.897084 -5.020289,2.175236 -0.517363,0.08984 -1.71585,0.153017 -2.074112,0.109326 z"
         style="fill:url(#linearGradient57);stroke-width:0.989373"
         id="path1-50-9" /><path
         d="m 11.473574,18.44736 c -0.01425,-0.06134 -0.05689,-0.249065 -0.09488,-0.41706 l -0.06906,-0.30543 0.344668,-0.660911 c 1.566792,-3.004321 3.690452,-5.640932 6.102485,-7.5764731 0.25046,-0.2009813 0.479253,-0.3658703 0.508439,-0.3664145 0.02919,-5.441e-4 0.175703,0.053228 0.325603,0.1195361 0.313206,0.1385123 0.336614,0.089241 -0.260809,0.5486076 -0.966895,0.7434049 -2.092594,1.8185869 -3.013414,2.8781859 -1.192511,1.372241 -2.463559,3.277765 -3.379947,5.067126 -0.22245,0.434374 -0.411826,0.797573 -0.42083,0.807111 -0.0089,0.0099 -0.028,-0.03285 -0.04225,-0.09429 z"
         style="fill:url(#linearGradient63);fill-opacity:1;stroke-width:0.989373"
         id="path1-756-2" /></g><g
       id="g11"><path
         d="M 8.8712057,11.659111 C 8.580221,11.075707 8.5155061,10.90785 8.5415563,10.804045 c 0.017809,-0.07104 0.058175,-0.121337 0.089637,-0.111789 0.031462,0.0099 0.1635929,0.222361 0.293646,0.47292 l 0.2364602,0.455547 0.1770682,-0.55206 C 10.028832,8.9157567 11.502207,7.3538329 13.407908,6.7545001 c 0.796802,-0.2505885 1.104438,-0.2919344 2.16277,-0.2906284 0.747462,9.3e-4 1.093822,0.021469 1.414161,0.083998 2.134207,0.4163877 4.262904,1.4980103 6.257698,3.1796087 0.416388,0.3510196 0.500564,0.4666076 0.306399,0.4207506 -0.05837,-0.01375 -0.270128,-0.03977 -0.470655,-0.05768 C 22.721365,10.058592 22.70597,10.051765 22.34658,9.7687252 21.12693,8.8080931 19.656049,7.992048 18.304733,7.5263004 16.522752,6.9121172 14.982259,6.842683 13.574756,7.3131103 c -1.437688,0.4805188 -2.50075,1.4144082 -3.225783,2.8338227 -0.245137,0.479896 -0.5999656,1.400705 -0.5999656,1.556937 0,0.05046 0.1266497,0.003 0.4489776,-0.169549 0.246938,-0.131942 0.469685,-0.239903 0.494974,-0.239903 0.06708,0 0.0563,0.263075 -0.01296,0.318064 -0.03245,0.02572 -0.371183,0.210074 -0.7528242,0.40967 l -0.6938872,0.362902 z"
         style="fill:url(#linearGradient45);stroke-width:0.989373"
         id="path1-9-0" /><path
         d="m 28.977361,18.116207 c -0.561578,-1.123265 -1.147426,-2.142102 -1.755821,-3.053533 -0.178889,-0.267981 -0.312385,-0.500108 -0.296664,-0.515829 0.06174,-0.06174 0.756643,0.181708 0.85376,0.299028 0.174446,0.210717 0.940934,1.489709 1.335763,2.22889 l 0.38643,0.723479 -0.07786,0.384283 c -0.04284,0.21136 -0.09458,0.414854 -0.115134,0.452213 -0.02592,0.04719 -0.126748,-0.110978 -0.33051,-0.518531 z"
         style="fill:url(#linearGradient43);stroke-width:0.989373"
         id="path1-5-8" /><path
         d="m 23.955767,35.635052 c -0.667363,-0.107901 -1.735154,-0.400686 -1.791033,-0.491105 -0.01276,-0.02058 0.09706,-0.117241 0.244019,-0.214793 l 0.26714,-0.177375 0.54379,0.128064 c 1.512801,0.356284 2.741484,0.332826 3.907965,-0.0746 2.250805,-0.786166 3.653885,-2.870855 4.039889,-6.00241 0.0743,-0.602588 0.101787,-2.234183 0.0465,-2.759056 -0.01504,-0.142598 -0.05936,-0.535023 -0.09854,-0.872073 l -0.07133,-0.612798 0.189069,-0.42363 c 0.103983,-0.232988 0.207353,-0.429715 0.229713,-0.437174 0.03957,-0.01316 0.187882,0.831241 0.304262,1.732867 0.09409,0.728664 0.07747,2.961205 -0.02751,3.700405 -0.499148,3.51558 -2.349287,5.818466 -5.192558,6.46326 -0.47107,0.106823 -2.030243,0.131151 -2.591416,0.04046 z"
         style="fill:url(#linearGradient53);fill-opacity:1;stroke-width:0.989373"
         id="path1-95-6" /><path
         d="M 17.662234,32.471164 C 15.43646,30.694359 13.422046,28.271818 11.874993,25.511417 10.461841,22.98993 9.5730375,20.593361 9.1160657,18.07217 9.0526469,17.722159 8.9870811,17.319 8.9703805,17.176263 L 8.9400067,16.91673 9.1816216,16.736348 c 0.1329025,-0.09922 0.2475511,-0.173338 0.2547537,-0.164721 0.00693,0.0089 0.048677,0.270218 0.092309,0.581336 0.5698097,4.069263 2.6787877,8.599436 5.6046317,12.038765 0.885558,1.040979 2.40025,2.470614 3.32101,3.134533 0.136118,0.09815 0.247482,0.194956 0.247482,0.215129 0,0.03077 -0.512159,0.285256 -0.574074,0.285256 -0.01108,0 -0.220571,-0.159962 -0.4655,-0.355482 z"
         style="fill:url(#linearGradient55);stroke-width:0.989373"
         id="path1-17-6" /></g><path
       d="m 17.747379,27.217552 c -0.466677,-0.109583 -0.935838,-0.454132 -1.09303,-0.802718 -0.07875,-0.174654 -0.0926,-0.183667 -0.22899,-0.148594 -0.07984,0.02048 -0.357283,0.03631 -0.616538,0.03493 -0.422037,-0.002 -0.499911,-0.01652 -0.743742,-0.137919 -0.325276,-0.161891 -0.660169,-0.504897 -0.794596,-0.813858 -0.09409,-0.216278 -0.14427,-0.678206 -0.08063,-0.742209 0.01702,-0.01712 0.112472,-0.0089 0.212121,0.01919 0.284752,0.07905 0.843678,0.0651 0.932049,-0.02325 0.04076,-0.04076 0.0741,-0.09221 0.0741,-0.11448 0,-0.12016 -0.161861,-0.188555 -0.446227,-0.188555 -0.632803,0 -1.254505,-0.325445 -1.477431,-0.773393 -0.133852,-0.268971 -0.1527,-0.689574 -0.04442,-0.991669 0.08479,-0.236698 0.142598,-0.253824 0.266982,-0.07915 0.277856,0.390209 1.105833,0.890347 1.889674,1.14144 0.457694,0.146625 0.65355,0.277777 0.782001,0.523646 0.192759,0.368987 -0.0562,0.759007 -0.617013,0.96641 -0.193977,0.07173 -0.23831,0.109622 -0.25045,0.213962 -0.01187,0.101994 0.0079,0.132605 0.103795,0.156538 0.14807,0.0372 0.515592,-0.08202 0.755357,-0.244939 0.161486,-0.109731 0.21231,-0.120407 0.453182,-0.09528 0.639907,0.06688 1.099254,0.369472 1.292805,0.851633 0.128876,0.321032 0.217969,0.392702 0.390486,0.314087 0.105803,-0.04818 0.115905,-0.0748 0.0931,-0.245038 -0.02355,-0.175871 -0.188337,-0.460712 -0.468914,-0.810732 -0.08835,-0.110227 -0.109514,-0.203218 -0.123276,-0.542098 -0.0183,-0.451431 -0.05253,-0.526891 -0.238993,-0.526891 -0.194352,0 -0.239349,0.08152 -0.239349,0.433682 0,0.176297 -0.0079,0.320547 -0.01652,0.320547 -0.0089,0 -0.07806,-0.02018 -0.153204,-0.04482 -0.07519,-0.02464 -0.221511,-0.06649 -0.325217,-0.0929 l -0.188555,-0.04808 v -0.343115 c 0,-0.309179 -0.01494,-0.364554 -0.150533,-0.559847 -0.167234,-0.240783 -0.437115,-0.396026 -0.970951,-0.558521 -0.458011,-0.139412 -0.947256,-0.392484 -1.341442,-0.693907 -0.93567,-0.715475 -1.290004,-1.706283 -0.926677,-2.591218 0.09112,-0.221907 0.345974,-0.629944 0.393464,-0.629944 0.019,0 0.06876,0.123058 0.110523,0.273463 0.173645,0.624552 0.812454,1.055691 1.678907,1.1331 l 0.348873,0.03117 0.08924,0.306399 c 0.04907,0.16852 0.100896,0.341749 0.115192,0.384945 0.02147,0.0649 -0.02068,0.08439 -0.241466,0.111968 -0.333953,0.04175 -0.623968,0.004 -1.00179,-0.13129 l -0.293963,-0.105042 -0.09676,0.09676 c -0.140154,0.140154 -0.07687,0.237113 0.229466,0.351762 0.52598,0.196826 1.139501,0.232829 1.546984,0.09072 0.119655,-0.04175 0.179868,-0.03047 0.382423,0.07124 0.132229,0.06639 0.358776,0.144528 0.503442,0.173576 0.20576,0.04135 0.267913,0.0745 0.285464,0.152225 0.01237,0.05471 0.04502,0.205463 0.07262,0.335091 0.111651,0.524654 0.506985,0.941467 1.215505,1.281515 0.853364,0.409581 1.226862,0.919365 1.238448,1.690364 0.0059,0.413578 -0.125809,0.747393 -0.423244,1.070067 -0.433346,0.470121 -1.215594,0.700684 -1.862159,0.548875 z m 3.51747,-0.478639 -0.672022,-0.3882 0.01207,-1.319894 0.01207,-1.319893 0.766012,-0.440271 0.766003,-0.440281 v -0.74677 -0.746769 l 0.129627,-0.09063 c 0.07133,-0.04987 0.431911,-0.265578 0.801363,-0.479411 l 0.671735,-0.388774 v -1.31191 c 0,-1.285077 0.002,-1.312532 0.09755,-1.342846 0.146675,-0.0466 0.279202,-0.29984 0.279409,-0.533995 1.39e-4,-0.169766 -0.02691,-0.232166 -0.15732,-0.362556 -0.182707,-0.182707 -0.339751,-0.233512 -0.581534,-0.188159 -0.497773,0.0934 -0.627173,0.756574 -0.208085,1.066416 l 0.145745,0.107763 v 1.187683 1.187683 l -0.548252,0.3119 c -0.301541,0.171538 -0.566693,0.311891 -0.589241,0.311891 -0.02256,0 -0.04017,-0.862754 -0.03918,-1.920909 l 0.002,-1.920917 0.151394,-0.09518 c 0.292191,-0.183766 0.326641,-0.665057 0.0652,-0.910689 -0.265369,-0.249302 -0.62377,-0.221679 -0.877791,0.06767 -0.235125,0.267784 -0.166067,0.703376 0.140184,0.884292 l 0.141025,0.08331 -0.01217,2.80705 -0.01217,2.80705 -0.424244,0.244553 c -0.233343,0.134506 -0.546223,0.314047 -0.695302,0.398975 l -0.271048,0.154412 v -0.563231 -0.56324 l 0.145833,-0.02919 c 0.08024,-0.01603 0.218098,-0.10142 0.306409,-0.189732 0.141916,-0.141916 0.160566,-0.189326 0.160566,-0.408275 0,-0.227664 -0.01524,-0.262213 -0.188555,-0.427073 l -0.188555,-0.179373 v -2.822445 -2.822455 l 0.652413,-0.384876 c 0.358826,-0.211696 0.676741,-0.384886 0.706491,-0.384886 0.02978,0 0.505105,0.262263 1.056364,0.5828 0.551269,0.320548 1.225033,0.710638 1.497259,0.86688 l 0.494954,0.284059 0.01217,2.635878 0.01217,2.635879 -0.574549,0.327285 c -0.316006,0.180006 -0.592743,0.334626 -0.614975,0.343599 -0.02226,0.0089 -0.115934,-0.01949 -0.208213,-0.06332 -0.492639,-0.233769 -1.000009,0.302511 -0.770722,0.814641 0.23931,0.534518 1.049122,0.396718 1.127678,-0.19188 l 0.02651,-0.198646 0.695302,-0.399459 0.695302,-0.39945 V 20.40347 c 0,-1.022695 -0.01583,-1.481349 -0.05204,-1.503709 -0.08904,-0.05501 -0.228714,-0.413103 -0.228714,-0.586204 0,-0.361378 0.315155,-0.774748 0.683291,-0.896243 0.2375,-0.07836 0.567287,-0.02612 0.784297,0.124245 0.209707,0.145319 0.416348,0.528603 0.414864,0.769476 -9.9e-4,0.190009 -0.133962,0.512663 -0.250757,0.609315 -0.07025,0.05818 -0.07836,0.24672 -0.07974,1.861991 l -0.002,1.797296 -2.098165,1.194638 -2.098154,1.194649 -0.169113,-0.08024 c -0.241328,-0.11452 -0.472812,-0.06658 -0.660595,0.136761 -0.277143,0.300116 -0.236352,0.725319 0.08855,0.923432 0.405198,0.247046 0.928438,-0.04808 0.935393,-0.527594 9.89e-4,-0.08885 0.124374,-0.177355 0.706759,-0.508251 0.610819,-0.347062 0.712101,-0.421344 0.756712,-0.555088 0.205671,-0.616458 1.018946,-0.819478 1.496883,-0.373656 0.321605,0.299988 0.382313,0.832231 0.137176,1.202672 -0.179334,0.270989 -0.569315,0.455715 -0.87613,0.415013 -0.225616,-0.02988 -0.231869,-0.02701 -1.542937,0.72988 -0.724024,0.417961 -1.337613,0.767892 -1.363535,0.777628 -0.02592,0.0099 -0.349555,-0.156994 -0.719166,-0.370511 z m 3.922994,-1.610106 c 0.165819,-0.06926 0.308022,-0.277737 0.308022,-0.451531 0,-0.238221 -0.267576,-0.51853 -0.494964,-0.51853 -0.23179,0 -0.495181,0.281061 -0.494776,0.527969 2.87e-4,0.179374 0.169866,0.40688 0.339781,0.455884 0.08528,0.02454 0.160981,0.0466 0.168292,0.04897 0.0069,0.002 0.08548,-0.02592 0.173645,-0.06273 z m 1.080762,-6.368231 c 0.32773,-0.155519 0.391337,-0.521439 0.13681,-0.787106 -0.102894,-0.107396 -0.166422,-0.131339 -0.348516,-0.131339 -0.190791,0 -0.240161,0.02078 -0.344718,0.145032 -0.173763,0.206502 -0.170419,0.499337 0.0079,0.665195 0.208412,0.194195 0.320913,0.216376 0.548835,0.108218 z m -4.414228,7.043913 c -0.04541,-0.02642 -0.115401,-0.11169 -0.155628,-0.189484 -0.172953,-0.334458 0.190414,-0.675802 0.56599,-0.53168 0.0932,0.03572 0.214229,0.259651 0.214229,0.396254 0,0.249718 -0.398114,0.456824 -0.624591,0.32491 z m -2.794426,-2.183824 c -0.696004,-0.328996 -0.959494,-0.630518 -1.060143,-1.213169 -0.06837,-0.396056 -0.200437,-0.53721 -0.566595,-0.605804 -0.651215,-0.121999 -0.917317,-0.422897 -0.917317,-1.037288 0,-0.293043 0.02295,-0.400242 0.133991,-0.626402 0.164533,-0.335071 0.14334,-0.421721 -0.09824,-0.401745 -0.163098,0.01346 -0.187268,0.03522 -0.304658,0.273918 -0.07015,0.142598 -0.13957,0.299414 -0.154302,0.348477 -0.02394,0.07974 -0.05956,0.08617 -0.336714,0.06025 -0.533054,-0.04977 -1.04925,-0.358004 -1.246244,-0.744157 -0.108544,-0.212764 -0.119635,-0.575894 -0.02325,-0.760709 0.06075,-0.11642 0.05808,-0.151483 -0.02553,-0.340503 -0.218543,-0.494053 -0.152611,-1.056631 0.179541,-1.532064 0.160348,-0.229515 0.530295,-0.566723 0.621752,-0.566723 0.01949,0 0.06055,0.10894 0.09122,0.242099 0.09528,0.412836 0.325958,0.828175 0.65172,1.173496 0.331746,0.351673 0.431821,0.408572 0.579565,0.329501 0.160308,-0.08578 0.110077,-0.215337 -0.198568,-0.512011 -0.776757,-0.74662 -0.935086,-1.631595 -0.381423,-2.131921 0.296238,-0.267705 0.704622,-0.428201 0.984882,-0.387073 0.121,0.01781 0.158656,-0.0069 0.287116,-0.189307 0.418742,-0.594079 1.528127,-0.680975 2.113658,-0.165571 0.542463,0.477491 0.603221,1.22805 0.143489,1.77268 l -0.131231,0.15546 0.09745,0.103805 c 0.164365,0.17508 0.289709,0.509993 0.290817,0.777044 9.89e-4,0.3017 -0.09488,0.547529 -0.294824,0.75414 -0.125838,0.130024 -0.14059,0.167541 -0.0926,0.235699 0.319518,0.454152 0.401864,0.72058 0.334844,1.083423 -0.108169,0.58564 -0.635336,0.813384 -1.208787,0.522201 -0.336318,-0.170776 -0.434662,-0.398242 -0.434187,-1.004244 2.08e-4,-0.260254 0.03206,-0.726932 0.07074,-1.037061 0.03868,-0.310129 0.07034,-0.717671 0.07034,-0.905652 0,-0.659022 -0.28674,-1.107337 -0.807101,-1.261867 -0.319093,-0.09478 -0.384768,-0.09251 -0.519342,0.01791 -0.160684,0.131863 -0.07222,0.252804 0.214961,0.294081 0.295447,0.04244 0.419801,0.132062 0.54648,0.393751 0.128213,0.264855 0.133249,0.637938 0.02137,1.582216 -0.115232,0.972435 -0.110493,1.388852 0.0188,1.655993 0.222916,0.460484 0.64898,0.702228 1.294773,0.734659 l 0.416398,0.02088 -0.03225,0.278261 c -0.03087,0.265667 -0.02463,0.289402 0.136187,0.524358 0.343244,0.501365 0.422255,0.968617 0.27099,1.602508 -0.09834,0.412045 -0.212983,0.697073 -0.277905,0.69086 -0.0188,-0.002 -0.225706,-0.09379 -0.459841,-0.204494 z m 4.053146,-0.52977 c -0.24672,-0.26622 -0.07371,-0.676632 0.285197,-0.676632 0.199428,0 0.400568,0.182539 0.400568,0.363525 0,0.38738 -0.433494,0.585304 -0.685765,0.313107 z m -2.755375,-1.430851 c 0,-0.338316 0.0089,-0.37712 0.08904,-0.37712 0.175782,0 0.309486,0.16292 0.309486,0.37712 0,0.214189 -0.133704,0.377109 -0.309486,0.377109 -0.07984,0 -0.08904,-0.03878 -0.08904,-0.377109 z m 2.878899,-4.178154 c -0.326602,-0.41521 0.193907,-0.911331 0.565872,-0.539367 0.153551,0.153561 0.171102,0.273839 0.06886,0.471645 -0.07885,0.152561 -0.156687,0.191928 -0.379296,0.191928 -0.114223,0 -0.184637,-0.03423 -0.255407,-0.124206 z m -1.578387,-0.822189 c -0.06708,-0.07974 -0.12204,-0.184835 -0.12204,-0.233482 0,-0.358846 0.413717,-0.549033 0.685597,-0.315165 0.276648,0.237964 0.09053,0.693679 -0.283357,0.693679 -0.118744,0 -0.188574,-0.03611 -0.2802,-0.145032 z"
       style="fill:url(#radialGradient39);stroke-width:0.989373"
       id="path1-26" /></g><style
     type="text/css"
     id="style1">
	.st0{fill:#00294B;}
	.st1{fill:#FFFFFF;}
</style><style
     type="text/css"
     id="style1-0">
	.st0{fill:#62003C;}
</style></svg>
